<?xml version="1.0" encoding="UTF-8"?>
<svg version="1.1" xmlns="http://www.w3.org/2000/svg" width="2048" height="2048">
<path d="M0 0 C2.9869314 0.00564443 5.97385711 0.0084623 8.96079254 0.0110817 C36.77439166 0.04653789 64.48637335 0.26257524 92.18442535 3.06482315 C94.81147077 3.33020776 97.43945051 3.5845507 100.0676651 3.83807755 C141.96646898 7.93374733 183.49785132 14.68553507 224.69120026 23.31805801 C225.49910004 23.48694534 226.30699982 23.65583267 227.13938141 23.8298378 C310.33513845 41.28155134 391.0229616 66.55850294 466.07108307 106.9122963 C468.97860788 108.47225975 471.89339715 110.01818663 474.80838776 111.56415176 C488.49742194 118.84864045 501.98319548 126.41679836 515.32254791 134.32245255 C517.72938014 135.74827126 520.13767116 137.171356 522.54813385 138.59100723 C537.67752682 147.50155739 552.76419282 156.44793523 567.53885651 165.93964005 C570.56173238 167.87556985 573.59903135 169.7883106 576.63626862 171.70160294 C580.65789266 174.23518046 584.67437573 176.77688064 588.69120026 179.31805801 C590.04447418 180.17367325 590.04447418 180.17367325 591.42508698 181.04657364 C639.00627077 211.1497945 639.00627077 211.1497945 646.25817327 236.28304213 C647.01792778 239.85351822 646.83024145 243.5020432 646.82262802 247.13760948 C646.82570697 248.49495848 646.82570697 248.49495848 646.82884812 249.87972867 C646.83453525 252.93398386 646.83305876 255.9881942 646.83164215 259.04245377 C646.83422481 261.24554779 646.83723769 263.44864134 646.84064555 265.65173423 C646.84873055 271.72323502 646.85050596 277.794724 646.85124302 283.86622953 C646.85290134 289.73637678 646.85921761 295.60651784 646.86532143 301.47666187 C646.88138686 317.2064699 646.8872854 332.93627697 646.89207018 348.66609173 C646.89440566 356.1068722 646.89800827 363.54765189 646.90176556 370.98843175 C646.91460176 396.45711223 646.92532072 421.92579229 646.92876816 447.39447594 C646.92898979 448.99348191 646.92921157 450.59248789 646.92943351 452.19149386 C646.92965415 453.79437283 646.92987463 455.3972518 646.93009496 457.00013077 C646.93053751 460.21580704 646.93098463 463.43148331 646.93143463 466.64715958 C646.93154402 467.44446128 646.93165341 468.24176299 646.93176612 469.06322535 C646.93539665 494.91507633 646.95131622 520.76689927 646.974625 546.61873951 C646.99922103 573.94823568 647.0129409 601.27771583 647.01413608 628.60722339 C647.01430753 631.60737094 647.01452296 634.60751848 647.01477051 637.60766602 C647.01482628 638.34639129 647.01488205 639.08511657 647.0149395 639.84622746 C647.01609017 651.73475159 647.02711358 663.62324695 647.04165756 675.51176137 C647.05602402 687.46182957 647.05925871 699.41186087 647.05121759 711.36193533 C647.04730572 717.83599007 647.04826695 724.30994798 647.06227493 730.78399086 C647.07498148 736.71069904 647.07384477 742.63723732 647.06168422 748.56394516 C647.0597216 750.70800171 647.06283165 752.85207017 647.07152858 754.99610998 C647.08260787 757.91209907 647.07514133 760.82748715 647.06313705 763.7434597 C647.07073225 764.57437099 647.07832744 765.40528227 647.08615279 766.26137269 C646.98726461 777.40098034 643.13602248 786.07929496 635.69120026 794.31805801 C632.86321251 796.68319165 629.88559068 798.49269206 626.69120026 800.31805801 C625.95514557 800.81821426 625.21909088 801.31837051 624.46073151 801.83368301 C613.58105029 809.05035598 600.18098978 811.47579086 587.74588776 814.90399551 C586.48696213 815.25113602 585.2280365 815.59827652 583.93096161 815.95593643 C569.25604411 819.99834603 554.56445871 823.97933975 539.87270355 827.96002197 C532.97212455 829.82980565 526.07184866 831.70070743 519.17166901 833.57196426 C518.04146269 833.87842849 518.04146269 833.87842849 516.88842392 834.19108391 C507.06533493 836.85502194 497.24533259 839.52988893 487.42948151 842.22040176 C485.85401802 842.65188019 485.85401802 842.65188019 484.24672699 843.09207535 C479.48248318 844.39704431 474.71893044 845.70443446 469.95658112 847.0163002 C468.32127435 847.46464644 466.68594098 847.91289565 465.05057526 848.36102676 C464.32078964 848.56316284 463.59100403 848.76529892 462.8391037 848.97356033 C457.91837256 850.31805801 457.91837256 850.31805801 455.69120026 850.31805801 C455.27716949 851.61803726 455.27716949 851.61803726 454.85477448 852.94427872 C453.74568389 856.16008291 452.4758232 859.20057995 451.07401276 862.29852676 C450.29731232 864.02196304 450.29731232 864.02196304 449.50492096 865.78021622 C449.230401 866.38580368 448.95588104 866.99139114 448.6730423 867.61532974 C447.49384039 870.21669694 446.32099264 872.8209135 445.14775848 875.42497635 C444.54166099 876.77014093 443.93524382 878.11516151 443.3285141 879.46004105 C440.52718034 885.67188321 437.76325305 891.90005404 435.00370026 898.13055801 C423.08509175 924.99294475 410.95879201 951.76335851 398.82913971 978.53094864 C394.75486351 987.52512837 390.69773997 996.52659051 386.66776276 1005.54071426 C385.84555694 1007.37732958 385.02329213 1009.21391849 384.20096588 1011.05047989 C382.65106198 1014.51210975 381.10624125 1017.97594576 379.56424713 1021.44110489 C366.77902687 1050.06318044 366.77902687 1050.06318044 350.19608307 1056.72137833 C348.90956419 1057.20054188 347.62139026 1057.67527896 346.33182526 1058.14618301 C345.63395401 1058.40417679 344.93608276 1058.66217056 344.2170639 1058.92798233 C342.04349335 1059.72944788 339.86767471 1060.52451605 337.69120026 1061.31805801 C337.02923645 1061.56048233 336.36727264 1061.80290665 335.68524933 1062.05267715 C276.46060989 1083.72016028 217.84521021 1097.86240829 154.69120026 1101.44305801 C154.00815826 1101.48185074 153.32511627 1101.52064346 152.62137604 1101.56061172 C147.31301527 1101.85477216 142.00274362 1102.08966017 136.69120026 1102.31805801 C135.7485903 1102.35952517 134.80598034 1102.40099232 133.83480644 1102.44371605 C110.46854645 1103.43832846 87.11518066 1103.48241439 63.73149896 1103.48531508 C60.44808239 1103.48603641 57.16466976 1103.48819071 53.8812542 1103.4908123 C42.32644519 1103.50001291 30.77164757 1103.50415446 19.21683502 1103.50336075 C8.61081117 1103.50276354 -1.99516125 1103.51325878 -12.60117215 1103.52910441 C-21.83731968 1103.54238905 -31.07345085 1103.547536 -40.3096078 1103.54690534 C-45.76747861 1103.54665609 -51.22530371 1103.54917436 -56.6831646 1103.56008339 C-80.02641442 1103.60344767 -103.32116832 1103.31377516 -126.64791107 1102.38568497 C-127.70238918 1102.34386546 -128.75686728 1102.30204594 -129.84329927 1102.25895917 C-194.21387284 1099.65153818 -253.35804235 1087.80106587 -314.39498138 1066.96966934 C-317.08787197 1066.05280176 -319.78452623 1065.14716782 -322.48067474 1064.23993301 C-357.26815295 1052.43514418 -357.26815295 1052.43514418 -366.17946625 1034.57284927 C-368.47199561 1029.79665448 -370.63774734 1024.9628138 -372.80879974 1020.13055801 C-373.51531663 1018.56969683 -374.22235708 1017.00907254 -374.92989349 1015.44867325 C-376.370849 1012.26801114 -377.80822104 1009.08576865 -379.24239349 1005.90204239 C-381.12187325 1001.73012062 -383.01071749 997.56251442 -384.90254974 993.39618301 C-389.69025784 982.84302598 -394.44827445 972.27718881 -399.14083099 961.68133926 C-399.46597687 960.94721817 -399.79112274 960.21309708 -400.12612152 959.45672989 C-402.8392774 953.33015202 -402.8392774 953.33015202 -404.12111664 950.43445206 C-409.72604481 937.78165171 -415.47634022 925.1997143 -421.27797699 912.6360817 C-425.93709255 902.54229578 -430.51189833 892.42290685 -434.89376068 882.20477676 C-438.22032543 874.45726826 -441.71184352 866.78927026 -445.26363373 859.1425209 C-445.66267914 858.27619034 -446.06172455 857.40985977 -446.47286224 856.51727676 C-446.8281601 855.75245987 -447.18345795 854.98764297 -447.5495224 854.19964981 C-448.30879974 852.31805801 -448.30879974 852.31805801 -448.30879974 850.31805801 C-449.20493988 850.09746719 -450.10108002 849.87687637 -451.02437592 849.64960098 C-462.92320921 846.70566781 -474.77450609 843.58905019 -486.62129974 840.44305801 C-487.67127136 840.16448959 -488.72124298 839.88592117 -489.80303192 839.59891129 C-512.71822199 833.51476663 -535.58388591 827.25417406 -558.43624115 820.93866348 C-563.13383836 819.64104068 -567.83345763 818.35097072 -572.53418732 817.06474686 C-575.85982474 816.15422237 -579.18445221 815.24005178 -582.50884247 814.3249855 C-584.01056845 813.912377 -585.51268865 813.50119983 -587.01525116 813.0916481 C-605.34184346 808.09315126 -623.59324019 802.3986025 -634.91426849 786.08758926 C-638.53401139 778.89880014 -639.75414654 771.75442045 -639.6947031 763.77977276 C-639.69996221 762.87004753 -639.70522133 761.96032231 -639.7106398 761.02302966 C-639.72454592 757.9882933 -639.71724289 754.95399285 -639.70993805 751.91923904 C-639.71554574 749.71595251 -639.72244919 747.51266896 -639.73053402 745.30939013 C-639.74886614 739.26492773 -639.74848983 733.22058995 -639.74495089 727.1761061 C-639.74440126 721.32333138 -639.75788005 715.4705994 -639.77078956 709.61784137 C-639.79977186 696.17085989 -639.80824089 682.72391278 -639.80996073 669.27690374 C-639.81134059 658.88921883 -639.81752204 648.50154735 -639.82706261 638.11386681 C-639.82975535 635.1212238 -639.83242479 632.12858078 -639.83508724 629.13593775 C-639.83575038 628.39190266 -639.83641353 627.64786758 -639.83709677 626.88128598 C-639.85555462 605.95803759 -639.86739896 585.03479387 -639.86606693 564.11153698 C-639.8660202 563.32299561 -639.86597346 562.53445425 -639.86592531 561.72201769 C-639.86567599 557.72558745 -639.86537887 553.72915722 -639.86507118 549.73272698 C-639.86501135 548.93905802 -639.86495151 548.14538905 -639.86488986 547.3276695 C-639.86476855 545.72267717 -639.86464316 544.11768484 -639.86451369 542.51269251 C-639.86267612 517.55103338 -639.88518433 492.58949659 -639.92623138 467.62787247 C-639.97235712 439.56639831 -639.9981274 411.50500453 -639.99534172 383.44349009 C-639.99511784 380.44864659 -639.99497171 377.45380309 -639.99487877 374.45895958 C-639.99484381 373.72158527 -639.99480884 372.98421095 -639.99477282 372.22449197 C-639.99468067 360.38041913 -640.01380302 348.53645286 -640.03967556 336.69241166 C-640.06516102 324.77876385 -640.06803142 312.8652712 -640.0483476 300.95161115 C-640.03856351 294.5028717 -640.03833938 288.05451669 -640.06440735 281.60581398 C-640.0880577 275.69422096 -640.08365318 269.78331606 -640.05755495 263.87173945 C-640.05296197 261.74119508 -640.0583532 259.61059888 -640.07513518 257.48011564 C-640.2097575 239.16652002 -637.02966523 222.01703365 -624.43379974 207.81805801 C-619.7295342 203.39356156 -614.04267228 200.24823381 -608.54708099 196.91571426 C-604.62101588 194.53123717 -600.80016069 192.01671224 -596.99629974 189.44305801 C-588.2231227 183.54004617 -579.27753399 177.91803105 -570.30879974 172.31805801 C-569.50233002 171.81435684 -568.69586029 171.31065567 -567.86495209 170.79169083 C-544.57097003 156.26486002 -521.12697889 141.97109078 -497.30879974 128.31805801 C-495.82379974 127.46630997 -495.82379974 127.46630997 -494.30879974 126.59735489 C-477.55153782 117.02023419 -460.50749981 108.06775107 -443.30879974 99.31805801 C-442.4958847 98.90330215 -441.68296967 98.4885463 -440.84542084 98.06122208 C-437.03295366 96.11940312 -433.20807607 94.20580684 -429.36495209 92.32538223 C-427.88177519 91.59876292 -426.40056718 90.86811986 -424.92061615 90.13495255 C-385.5244425 70.65577458 -344.56410703 56.18694084 -302.30879974 44.31805801 C-301.45392975 44.07764786 -300.59905975 43.8372377 -299.71828461 43.58954239 C-232.46405414 24.72818715 -163.89227932 11.07173988 -94.37129974 4.00555801 C-93.27827545 3.89238235 -93.27827545 3.89238235 -92.16316986 3.77692032 C-86.5511622 3.20523491 -80.93386591 2.74090123 -75.30879974 2.31805801 C-74.17533112 2.23192245 -73.04186249 2.1457869 -71.87404633 2.05704117 C-47.91712409 0.29821639 -24.01516799 -0.04610459 0 0 Z M-12.48458099 71.83368301 C-13.66620819 71.88924362 -14.84783539 71.94480423 -16.06526947 72.00204849 C-44.887379 73.37966915 -73.62534562 75.08919202 -102.30879974 78.31805801 C-103.10086823 78.40680191 -103.89293671 78.49554581 -104.70900726 78.58697891 C-197.70258069 89.09728566 -293.88973676 110.74886856 -540.00411224 239.93915176 C-546.12611627 243.84308752 -552.26616005 247.71827755 -558.40962982 251.58832169 C-559.14334808 252.05085342 -559.87706635 252.51338516 -560.63301849 252.98993301 C-561.27327972 253.39308731 -561.91354095 253.79624161 -562.57320404 254.2116127 C-564.16509099 255.22644343 -565.73801187 256.2708661 -567.30879974 257.31805801 C-567.76275362 260.02159279 -567.76275362 260.02159279 -567.68073654 263.25789547 C-567.68732639 264.53249809 -567.69391623 265.80710071 -567.70070577 267.12032765 C-567.69283533 268.54876267 -567.68468742 269.97719618 -567.67629242 271.4056282 C-567.67831529 272.91374776 -567.68165292 274.42186604 -567.686198 275.9299801 C-567.69488757 280.09349107 -567.68474012 284.25678072 -567.67165565 288.42027247 C-567.66078937 292.9096434 -567.66716762 297.39899311 -567.67144012 301.88837051 C-567.67709757 310.71922834 -567.6666964 319.54999982 -567.65115216 328.38084295 C-567.63353941 338.75845308 -567.63219072 349.13604679 -567.63153657 359.51366953 C-567.62984315 378.1578753 -567.61400163 396.80204249 -567.59004974 415.44623184 C-567.56712494 433.30495908 -567.55271764 451.1636619 -567.54903412 469.02240372 C-567.54880129 470.10847396 -567.54856846 471.1945442 -567.54832858 472.31352566 C-567.54739649 476.68654081 -567.54647604 481.05955595 -567.54557595 485.43257111 C-567.52240694 614.37871347 -567.52240694 614.37871347 -566.30879974 743.31805801 C-565.61413605 743.50498844 -564.91947235 743.69191887 -564.20375824 743.88451385 C-551.03743167 747.42774656 -537.87165331 750.97293536 -524.70989227 754.5330925 C-512.01476087 757.96694841 -499.31814529 761.39526635 -486.62017059 764.81859207 C-481.88564904 766.09520927 -477.15138136 767.37276759 -472.41712189 768.65035629 C-468.43721709 769.72430151 -464.45715277 770.79764898 -460.47676849 771.86981583 C-452.05976808 774.1374497 -443.64503276 776.41286139 -435.23583221 778.70927048 C-431.06552816 779.84631729 -426.88906458 780.95636698 -422.70723724 782.05047989 C-420.84511561 782.55060079 -418.98312298 783.0512024 -417.12129974 783.55243301 C-416.33295746 783.75096878 -415.54461517 783.94950455 -414.73238373 784.15405655 C-405.49181138 786.69015041 -397.6869408 792.38748117 -392.30879974 800.31805801 C-391.35587387 802.19356289 -390.45647998 804.09676593 -389.59786224 806.01727676 C-389.07716156 807.1702626 -388.55646088 808.32324844 -388.01998138 809.51117325 C-387.74292358 810.12902695 -387.46586578 810.74688065 -387.18041229 811.38345718 C-385.65327568 814.77303638 -384.08932407 818.14564916 -382.53145599 821.52118301 C-374.95102497 837.99348451 -367.40149093 854.47933378 -359.90914154 870.99188614 C-355.69342085 880.28152606 -351.45455312 889.56035161 -347.20635223 898.83517838 C-340.74142972 912.95219827 -334.34921901 927.09944822 -328.01265717 941.27464676 C-324.31992724 949.53329558 -320.61412197 957.78607277 -316.90517426 966.03744888 C-316.09742462 967.83505611 -315.29016549 969.63288384 -314.48342133 971.43094254 C-313.35088326 973.95504879 -312.21674404 976.4784299 -311.08223724 979.00165176 C-310.74528839 979.75351761 -310.40833954 980.50538345 -310.06118011 981.28003311 C-309.43525399 982.67037789 -308.80136147 984.0571745 -308.15808868 985.43957901 C-307.38441223 987.15081638 -306.70009872 988.90174675 -306.02632904 990.65472794 C-303.70435986 994.25534794 -300.9845054 995.07283704 -297.05489349 996.24774551 C-295.96849327 996.60213699 -295.96849327 996.60213699 -294.86014557 996.9636879 C-292.49532426 997.72899592 -290.12171118 998.4613523 -287.74629974 999.19305801 C-286.10152237 999.71681964 -284.45731922 1000.24238778 -282.81368256 1000.76971817 C-278.73100857 1002.07366087 -274.64050008 1003.35075979 -270.54701996 1004.62030411 C-267.35357151 1005.61584562 -264.1694658 1006.6392003 -260.98458099 1007.66180801 C-218.51866187 1021.17871924 -175.67519124 1027.00231124 -131.30879974 1029.31805801 C-129.78633636 1029.39902725 -129.78633636 1029.39902725 -128.23311615 1029.48163223 C-121.26069115 1029.84133524 -114.28657822 1030.08844227 -107.30879974 1030.31805801 C-106.04259293 1030.3599173 -104.77638611 1030.40177658 -103.47180939 1030.44490433 C-69.88466805 1031.52039852 -36.29368406 1031.47282382 -2.69376945 1031.44662684 C2.71019488 1031.44285391 8.11414089 1031.44422005 13.51810455 1031.44842911 C47.25190479 1031.47400174 80.97284693 1031.48567921 114.69120026 1030.31805801 C115.81630005 1030.28025223 116.94139984 1030.24244644 118.10059357 1030.20349503 C124.11252461 1029.9961932 130.12077328 1029.74426951 136.12870026 1029.44305801 C136.9758963 1029.40137497 137.82309235 1029.35969193 138.695961 1029.31674576 C191.50420133 1026.68217079 240.69247313 1016.74730007 291.00370026 1000.50555801 C291.90734314 1000.21502548 292.81098602 999.92449295 293.74201202 999.6251564 C296.32707154 998.79235653 298.90984784 997.95284871 301.49198151 997.11102676 C302.27526825 996.85919632 303.05855499 996.60736588 303.8655777 996.34790421 C309.88327944 994.54643382 309.88327944 994.54643382 313.93949127 990.06366348 C314.3538443 989.11378555 314.76819733 988.16390762 315.19510651 987.18524551 C315.67866608 986.09058975 316.16222565 984.99593399 316.66043854 983.86810684 C316.91827118 983.27333542 317.17610382 982.678564 317.44174957 982.0657692 C318.27470298 980.14461662 319.1180232 978.22831592 319.96414948 976.31293106 C320.88654421 974.22429715 321.8081244 972.13533199 322.72660065 970.04497147 C326.16566637 962.21844068 329.67584079 954.42426612 333.1891861 946.63086319 C334.32628182 944.10819185 335.46225386 941.58501722 336.59793854 939.06171036 C359.35105532 888.51510025 359.35105532 888.51510025 370.87088776 863.45868301 C373.1537315 858.49303182 375.42760228 853.52332085 377.69901276 848.55243301 C378.23033562 847.38967094 378.23033562 847.38967094 378.77239227 846.20341873 C380.19242581 843.09549688 381.61231246 839.98750804 383.03186798 836.87936783 C386.79345772 828.64362138 390.56301031 820.41183468 394.36209869 812.19330215 C395.32325122 810.11404182 396.2801535 808.032815 397.23441315 805.95038223 C402.18671271 795.26881577 407.89950942 789.89633087 418.69120026 785.31805801 C423.33023065 783.77002912 428.03693078 782.51149 432.76541901 781.27118301 C434.14899982 780.89964756 435.53231942 780.52713819 436.91539764 780.15373611 C440.62872078 779.15396927 444.34538971 778.16722553 448.06281281 777.18283081 C451.96451642 776.14708909 455.8628684 775.09888726 459.76151276 774.05170059 C466.20450029 772.32245645 472.64917396 770.59964425 479.09500885 768.8810463 C488.25286949 766.43861049 497.40474834 763.97434072 506.55448151 761.50165176 C507.61957726 761.21383898 507.61957726 761.21383898 508.70619011 760.92021179 C511.51125824 760.16217332 514.31630671 759.40406226 517.12129879 758.64574242 C521.71525004 757.40390734 526.30984348 756.16448058 530.9048233 754.92645645 C532.1414119 754.59323883 533.37800049 754.26002121 534.65206146 753.91670609 C536.89500906 753.31241418 539.13801223 752.70832847 541.38109589 752.10454178 C552.15778285 749.20015932 562.92416572 746.25798285 573.69120026 743.31805801 C573.96030824 718.73637523 574.19976028 694.15445419 574.42220015 669.5723059 C574.45426194 666.02932418 574.48643382 662.48634347 574.51865387 658.94336319 C574.52527966 658.2142054 574.53190546 657.48504761 574.53873203 656.73379413 C574.64462299 645.10883559 574.75847928 633.4839681 574.87513925 621.85911311 C575.3283344 576.58828612 575.69249264 531.31805384 575.89823874 486.04536834 C575.92308113 480.59076953 575.94882772 475.13617533 575.9751358 469.6815834 C575.98034345 468.59787498 575.98555111 467.51416656 575.99091657 466.39761849 C576.07879274 448.59451767 576.24724746 430.79297555 576.44269728 412.99076848 C576.64408587 394.48921255 576.76202014 375.98849077 576.80181748 357.48587424 C576.82870585 346.17533044 576.91913607 334.86915519 577.09471602 323.55992503 C577.20786778 315.87081953 577.2397275 308.18404898 577.20774376 300.49418794 C577.19170751 296.07159847 577.2107514 291.6567716 577.32717896 287.2355175 C578.40437554 270.0331485 578.40437554 270.0331485 572.56762433 254.58362889 C567.45003851 250.02575773 561.78822459 247.16133212 555.49428284 244.558653 C551.02451487 242.58041242 547.06303437 239.89246398 543.00370026 237.19305801 C541.44231308 236.20355998 539.87879506 235.2174088 538.31229401 234.23602676 C535.25728343 232.30969251 532.20824577 230.37441266 529.16385651 228.43133926 C502.5775376 211.49108222 475.37028408 195.40887573 447.69120026 180.31805801 C446.73020416 179.79244278 445.76920807 179.26682755 444.77909088 178.72528458 C359.94245572 132.39549597 269.54710534 105.3569046 50.69120026 73.31805801 C49.85836517 73.27529739 49.02553009 73.23253677 48.16745758 73.18848038 C37.73287387 72.65630566 27.29679598 72.15402071 16.85916901 71.68524551 C16.05204971 71.64786774 15.24493042 71.61048996 14.41335297 71.57197952 C5.41184841 71.17713993 -3.48828227 71.40598185 -12.48458099 71.83368301 Z " fill="#010000" transform="translate(1029.3087997436523,545.681941986084)"/>
<path d="M0 0 C9.15691977 7.3342676 17.31933067 15.84633497 25.42104149 24.3023119 C28.62166027 27.64225628 31.83511488 30.96983571 35.04649544 34.29942799 C35.72573122 35.00428943 36.404967 35.70915087 37.10478568 36.43537176 C46.63949637 46.32316957 56.25824037 56.12916636 65.871521 65.94048309 C73.67908242 73.91366933 81.45627264 81.91293022 89.17103767 89.97601795 C95.93734345 97.04757136 102.75630762 104.06328136 109.64099133 111.01970416 C113.27006509 114.69041072 116.86870866 118.38201953 120.40464592 122.14271069 C136.49072945 140.46923687 136.49072945 140.46923687 158.44895804 148.49616581 C164.04923892 148.60180194 169.51742128 147.9239788 175.03276634 147.02400112 C181.15466283 146.20334198 187.01384577 147.41270165 193.02601814 148.62274647 C194.08562752 148.81739491 195.14523689 149.01204334 196.23695564 149.21259022 C216.07442352 153.27134575 231.98779503 162.59407914 248.02601814 174.62274647 C249.01601814 175.28274647 250.00601814 175.94274647 251.02601814 176.62274647 C251.02601814 177.28274647 251.02601814 177.94274647 251.02601814 178.62274647 C251.68601814 178.62274647 252.34601814 178.62274647 253.02601814 178.62274647 C253.02601814 179.28274647 253.02601814 179.94274647 253.02601814 180.62274647 C253.59836189 180.85993397 254.17070564 181.09712147 254.76039314 181.34149647 C257.51394734 182.89867884 259.19397448 184.74767444 261.27601814 187.12274647 C262.33562752 188.31384022 262.33562752 188.31384022 263.41664314 189.52899647 C265.02601814 191.62274647 265.02601814 191.62274647 265.02601814 193.62274647 C265.68601814 193.62274647 266.34601814 193.62274647 267.02601814 193.62274647 C268.86615976 195.91758312 270.5536197 198.20113289 272.21351814 200.62274647 C272.70529549 201.33809559 273.19707283 202.05344471 273.70375252 202.79047108 C278.51888354 210.01080106 281.83553626 217.58585324 285.02601814 225.62274647 C285.79752205 227.35137928 285.79752205 227.35137928 286.58461189 229.11493397 C288.08862136 232.77509794 289.13181011 236.34679439 290.08851814 240.18524647 C290.56998299 242.07436756 290.56998299 242.07436756 291.06117439 244.00165272 C292.91896476 252.4729094 294.54120842 260.64084557 293.25453377 269.30096912 C291.87449743 279.49512433 291.3277288 288.72722493 297.63284492 297.24812412 C304.16723371 305.2735776 311.8578879 312.24141325 319.51918221 319.16547108 C322.87188325 322.22654424 326.1395287 325.37576675 329.41664314 328.51727772 C338.24357988 336.93896875 347.17370259 345.25198932 356.42897224 353.20364857 C359.12942627 355.6032093 361.59113065 358.20754297 364.02601814 360.87274647 C364.53439217 361.42849354 365.04276619 361.98424061 365.56654549 362.5568285 C375.16976949 373.20988362 380.62284196 381.28910503 380.32679939 395.99774647 C379.11826005 410.56299988 370.45221859 420.14175804 359.79164314 429.39618397 C355.65219087 432.72879385 351.3406334 435.78798507 346.98695564 438.82977772 C342.50136246 441.97014857 338.1107851 445.23542996 333.71351814 448.49774647 C327.02396384 453.44933815 320.27334888 458.29827105 313.45619392 463.07220936 C307.94056867 466.94706172 302.5072835 470.92633607 297.08851814 474.93524647 C295.48569431 476.11629136 293.88283135 477.29728315 292.27992439 478.47821522 C289.83801856 480.27860793 287.4087069 482.0906954 284.99086189 483.92352772 C275.61397981 490.86331208 264.74657342 494.62896266 253.02601814 493.62274647 C237.00865773 490.65563732 225.35363345 478.33101021 216.44789314 465.44305897 C214.55753101 462.57545926 212.93329786 459.61852238 211.32679939 456.58368397 C206.74159895 448.05541499 201.21045945 440.1252362 195.74110603 432.14716053 C194.83532983 430.82182433 193.93029557 429.49598074 193.02601814 428.16962147 C192.58370354 427.5214043 192.14138893 426.87318714 191.68567085 426.20532703 C189.13096894 422.4130415 186.86458099 418.58908401 184.77601814 414.51337147 C180.27030306 405.69218839 180.27030306 405.69218839 172.12220955 400.72284412 C165.16598313 399.56330127 158.23454353 399.60720151 151.20131111 399.67596912 C144.22858431 399.5590958 137.64129424 397.70144976 131.02601814 395.62274647 C130.36102303 395.4166576 129.69602791 395.21056873 129.01088142 394.99823475 C118.43731508 391.6202519 109.30675908 386.64467889 100.02601814 380.62274647 C98.82439259 379.86071641 97.622573 379.09899223 96.42054939 378.33759022 C90.26486482 374.36129221 90.26486482 374.36129221 88.02601814 372.62274647 C88.02601814 371.96274647 88.02601814 371.30274647 88.02601814 370.62274647 C87.36601814 370.62274647 86.70601814 370.62274647 86.02601814 370.62274647 C86.02601814 369.96274647 86.02601814 369.30274647 86.02601814 368.62274647 C85.36601814 368.62274647 84.70601814 368.62274647 84.02601814 368.62274647 C84.02601814 367.96274647 84.02601814 367.30274647 84.02601814 366.62274647 C83.45367439 366.38555897 82.88133064 366.14837147 82.29164314 365.90399647 C79.53808894 364.34681409 77.85806181 362.4978185 75.77601814 360.12274647 C75.06961189 359.32868397 74.36320564 358.53462147 73.63539314 357.71649647 C72.02601814 355.62274647 72.02601814 355.62274647 72.02601814 353.62274647 C71.36601814 353.62274647 70.70601814 353.62274647 70.02601814 353.62274647 C68.18587652 351.32790982 66.49841658 349.04436005 64.83851814 346.62274647 C64.3467408 345.90739735 63.85496346 345.19204823 63.34828377 344.45502186 C58.53315275 337.23469187 55.21650003 329.6596397 52.02601814 321.62274647 C51.51168221 320.45872303 50.99734627 319.29469959 50.46742439 318.09540272 C39.29492926 291.17846999 39.68672389 256.10069451 50.43226814 229.08759022 C51.31473969 227.0701622 52.22373101 225.06391241 53.17054939 223.07587147 C54.18514662 220.16643286 54.06248763 219.4828185 53.02601814 216.62274647 C51.68160623 214.42201656 50.30456743 212.30891287 48.84242439 210.18915272 C47.92694758 208.83924151 47.01176234 207.48913254 46.09681892 206.13885975 C45.60159737 205.41192921 45.10637581 204.68499866 44.59614754 203.93603992 C41.78562117 199.79525237 39.01626201 195.62696491 36.24086189 191.46259022 C35.0385182 189.66107098 33.8360426 187.85963977 32.63344002 186.05829334 C32.02943367 185.1532909 31.42542732 184.24828846 30.80311775 183.3158617 C29.5753393 181.47671964 28.34714821 179.63785298 27.11854744 177.79926014 C20.73515487 168.24580847 14.37838417 158.68167226 8.19178963 148.99945545 C4.48637405 143.20649383 0.69981303 137.46603666 -3.0757885 131.71869373 C-4.4079923 129.69055894 -5.73890928 127.66158415 -7.06968498 125.63251209 C-14.31313298 114.5949485 -21.63365686 103.60996985 -28.97956657 92.64041615 C-29.65355995 91.63393528 -29.65355995 91.63393528 -30.34116936 90.60712147 C-30.78953148 89.93758442 -31.2378936 89.26804737 -31.69984245 88.57822132 C-36.40426406 81.54946953 -41.08438472 74.50468306 -45.75749016 67.45508289 C-46.83694881 65.82915202 -47.92054709 64.20597114 -49.00474358 62.58319569 C-63.36490056 41.03693834 -76.8155511 15.14134356 -74.97398186 -11.37725353 C-73.79840073 -16.24954157 -71.78983471 -19.16801649 -67.53648186 -21.81475353 C-45.95189351 -31.28167825 -17.01890715 -12.45513781 0 0 Z " fill="#000000" transform="translate(859.9739818572998,952.3772535324097)"/>
<path d="M0 0 C10.27276085 8.14628372 17.25660903 19.04236215 19.56640625 32.03515625 C21.14253135 47.89809276 18.67536648 62.28738874 8.56640625 75.03515625 C-0.40096143 84.87284037 -12.22666354 91.64036746 -25.6953125 92.37109375 C-39.23165881 92.64675841 -50.5292586 90.57831647 -61.43359375 82.03515625 C-62.0471875 81.58398438 -62.66078125 81.1328125 -63.29296875 80.66796875 C-72.8006789 73.22166478 -77.84561789 62.62654267 -80.43359375 51.03515625 C-81.77891552 35.89518342 -80.02647399 22.27933504 -70.43359375 10.03515625 C-69.98242188 9.4215625 -69.53125 8.80796875 -69.06640625 8.17578125 C-52.62371191 -12.81884542 -21.08517286 -14.45577353 0 0 Z " fill="#020000" transform="translate(1477.43359375,819.96484375)"/>
<path d="M0 0 C1.39090345 1.02033428 2.76710227 2.06113525 4.125 3.125 C4.73859375 3.57617188 5.3521875 4.02734375 5.984375 4.4921875 C15.49208515 11.93849147 20.53702414 22.53361358 23.125 34.125 C24.47032177 49.26497283 22.71788024 62.88082121 13.125 75.125 C12.67382812 75.73859375 12.22265625 76.3521875 11.7578125 76.984375 C4.58191815 86.14681638 -6.38914493 92.37180957 -17.875 94.125 C-33.64420958 95.07177341 -47.09018881 93.26333581 -59.875 83.125 C-69.79260859 74.08477858 -76.51545329 62.2101184 -77.2109375 48.64453125 C-77.51562564 32.83404712 -74.57985813 19.67469705 -63.62109375 7.65234375 C-46.80695801 -8.51405642 -20.13730778 -12.86080161 0 0 Z " fill="#020000" transform="translate(627.875,817.875)"/>
<path d="M0 0 C10.27276085 8.14628372 17.25660903 19.04236215 19.56640625 32.03515625 C21.14253135 47.89809276 18.67536648 62.28738874 8.56640625 75.03515625 C-0.40096143 84.87284037 -12.22666354 91.64036746 -25.6953125 92.37109375 C-39.23165881 92.64675841 -50.5292586 90.57831647 -61.43359375 82.03515625 C-62.0471875 81.58398438 -62.66078125 81.1328125 -63.29296875 80.66796875 C-72.8006789 73.22166478 -77.84561789 62.62654267 -80.43359375 51.03515625 C-81.77891552 35.89518342 -80.02647399 22.27933504 -70.43359375 10.03515625 C-69.98242188 9.4215625 -69.53125 8.80796875 -69.06640625 8.17578125 C-52.62371191 -12.81884542 -21.08517286 -14.45577353 0 0 Z " fill="#020000" transform="translate(1249.43359375,724.96484375)"/>
<path d="M0 0 C1.39090345 1.02033428 2.76710227 2.06113525 4.125 3.125 C4.73859375 3.57617188 5.3521875 4.02734375 5.984375 4.4921875 C15.49208515 11.93849147 20.53702414 22.53361358 23.125 34.125 C24.47032177 49.26497283 22.71788024 62.88082121 13.125 75.125 C12.67382812 75.73859375 12.22265625 76.3521875 11.7578125 76.984375 C4.58191815 86.14681638 -6.38914493 92.37180957 -17.875 94.125 C-33.64420958 95.07177341 -47.09018881 93.26333581 -59.875 83.125 C-69.79260859 74.08477858 -76.51545329 62.2101184 -77.2109375 48.64453125 C-77.51562564 32.83404712 -74.57985813 19.67469705 -63.62109375 7.65234375 C-46.80695801 -8.51405642 -20.13730778 -12.86080161 0 0 Z " fill="#020000" transform="translate(855.875,722.875)"/>
<path d="M0 0 C0.66 0.33 1.32 0.66 2 1 C-2.62 5.62 -7.24 10.24 -12 15 C-12 11.11566834 -10.82920314 10.32394504 -8.25 7.5 C-7.55390625 6.7265625 -6.8578125 5.953125 -6.140625 5.15625 C-4.19891408 3.20036601 -2.25069252 1.58156772 0 0 Z " fill="#2B0807" transform="translate(572,819)"/>
<path d="M0 0 C0.66 0.33 1.32 0.66 2 1 C-2.62 5.62 -7.24 10.24 -12 15 C-12 11.11566834 -10.82920314 10.32394504 -8.25 7.5 C-7.55390625 6.7265625 -6.8578125 5.953125 -6.140625 5.15625 C-4.19891408 3.20036601 -2.25069252 1.58156772 0 0 Z " fill="#2B0807" transform="translate(800,724)"/>
<path d="M0 0 C0.66 0.33 1.32 0.66 2 1 C-2.62 5.62 -7.24 10.24 -12 15 C-12 10.09687565 -8.29800369 7.38658643 -5 4 C-3.37458956 2.61667196 -1.72614587 1.25537882 0 0 Z " fill="#2C0907" transform="translate(1418,819)"/>
<path d="M0 0 C0.66 0.33 1.32 0.66 2 1 C-2.62 5.62 -7.24 10.24 -12 15 C-12 10.09687565 -8.29800369 7.38658643 -5 4 C-3.37458956 2.61667196 -1.72614587 1.25537882 0 0 Z " fill="#2C0907" transform="translate(1190,724)"/>
</svg>
