<?xml version="1.0" encoding="UTF-8"?>
<svg version="1.1" xmlns="http://www.w3.org/2000/svg" width="2048" height="2048">
<path d="M0 0 C4.87264154 3.29705685 7.73588415 6.48621199 10 12 C10.43359375 15.40234375 10.43359375 15.40234375 10.4375 18.9375 C10.45683594 20.10152344 10.47617188 21.26554688 10.49609375 22.46484375 C9.41834003 30.14489981 4.44584878 35.02309335 -0.75 40.375 C-2.09260676 41.78109835 -3.43504902 43.18735378 -4.77734375 44.59375 C-5.81737549 45.6765625 -5.81737549 45.6765625 -6.87841797 46.78125 C-9.69597506 49.72785056 -12.47859927 52.70637836 -15.26293945 55.68432617 C-21.04883802 61.86858678 -26.90158557 67.94991447 -32.9296875 73.8984375 C-34.77376477 75.7703499 -36.49034996 77.68332785 -38.1875 79.6875 C-41.72588371 83.84235628 -45.61452059 87.61223141 -49.5 91.4375 C-54.79743064 96.66239858 -59.66651972 101.93185279 -64 108 C-62.74630615 108.25475098 -61.4926123 108.50950195 -60.20092773 108.77197266 C-54.59598006 110.02061552 -49.21708088 111.80071049 -43.78515625 113.6484375 C-42.2097683 114.1792543 -42.2097683 114.1792543 -40.60255432 114.72079468 C-31.13066497 117.9257691 -21.70071569 121.24552299 -12.28405762 124.60876465 C-7.1226711 126.45140553 -1.95786051 128.28439893 3.20703125 130.1171875 C4.30933075 130.50837769 5.41163025 130.89956787 6.54733276 131.3026123 C20.26516465 136.16522572 34.00765866 140.95722539 47.75 145.75 C49.08865705 146.21694964 50.42731061 146.6839093 51.76596069 147.15087891 C57.16215494 149.03323633 62.55838768 150.91548331 67.95472717 152.79742432 C82.09822309 157.73022214 96.23717078 162.67598638 110.375 167.625 C111.60893494 168.05693665 112.84286987 168.48887329 114.11419678 168.93389893 C131.18458398 174.90983229 148.25308561 180.8911371 165.31954956 186.87826538 C168.83709579 188.11170872 172.35514684 189.3437028 175.87329102 190.57543945 C187.42828785 194.62353763 198.97334821 198.69729799 210.50147247 202.82119751 C214.8948374 204.39134315 219.29082134 205.95414675 223.68634033 207.51824951 C226.08728441 208.37519552 228.48684661 209.23602399 230.88494873 210.10089111 C234.18692035 211.29160685 237.49323803 212.46939867 240.80078125 213.64453125 C241.78018173 214.00173752 242.75958221 214.35894379 243.7686615 214.72697449 C244.66782791 215.04370621 245.56699432 215.36043793 246.4934082 215.68676758 C247.66115532 216.10591179 247.66115532 216.10591179 248.85249329 216.53352356 C251.33417213 217.0725881 252.63838715 216.89893186 255 216 C257.19115709 214.30324284 259.24880585 212.5900383 261.3125 210.75 C261.92279053 210.21568359 262.53308105 209.68136719 263.16186523 209.13085938 C264.45582532 207.99796427 265.74752254 206.86248011 267.03710938 205.72460938 C268.94578228 204.04763607 270.86796726 202.38800945 272.796875 200.734375 C279.44400398 195.03019281 285.96335485 189.22294493 292.36303711 183.24267578 C296.53255999 179.37102192 300.8831382 175.77353832 305.3203125 172.2109375 C308.13253315 169.8906505 310.81797263 167.46928866 313.5 165 C317.92050686 160.9306256 322.48924779 157.12443687 327.17578125 153.3671875 C329.74699068 151.21206591 332.16486599 148.97434502 334.5847168 146.65527344 C341.07672188 140.46888343 346.73087199 136.03886606 355.9375 135.4375 C361.68982024 135.7237741 366.3922573 137.55807172 371 141 C376.01255632 146.71411086 378.44586526 152.13745361 378.26171875 159.80078125 C376.75722952 172.44298176 365.08407414 180.27933798 355.8515625 187.65234375 C352.79610835 190.16786149 349.89421303 192.80305609 347 195.5 C342.41272475 199.76951318 337.66554236 203.7576096 332.78125 207.6875 C329.75980516 210.19971256 326.87561617 212.82404088 324 215.5 C319.36754339 219.80999105 314.57877484 223.85061396 309.6484375 227.8203125 C306.17638901 230.67783913 302.87245563 233.70013268 299.55859375 236.73828125 C295.9582528 239.92087272 292.16522345 242.84498755 288.34765625 245.76171875 C283.80685399 250.09096949 282.42048815 255.52034705 281.14990234 261.49780273 C280.98835663 262.22607269 280.82681091 262.95434265 280.66036987 263.7046814 C280.1281005 266.11274503 279.60709617 268.52310335 279.0859375 270.93359375 C278.70897472 272.64779461 278.33124265 274.36182646 277.95278931 276.07569885 C276.95311131 280.61139041 275.96264662 285.14904271 274.9744873 289.68725586 C273.42337191 296.80324646 271.85827021 303.91618493 270.29438019 311.02937698 C269.90508922 312.8003523 269.51606684 314.57138669 269.12731171 316.34247971 C266.19098677 329.71521856 263.18113197 343.0696759 260.1015625 356.41015625 C259.91494427 357.21976744 259.72832603 358.02937862 259.5360527 358.86352348 C258.37101481 363.91227596 257.19242634 368.95764874 256 374 C255.71920593 375.19317841 255.43841187 376.38635681 255.14910889 377.61569214 C254.89155823 378.68280426 254.63400757 379.74991638 254.36865234 380.84936523 C254.15042816 381.75798813 253.93220398 382.66661102 253.70736694 383.60276794 C253 386 253 386 251.97134399 387.81900024 C250.50997537 391.10027303 250.398609 394.50867641 250.08984375 398.04663086 C249.10714988 407.89554393 247.40488769 417.53481026 245.5625 427.25390625 C245.21115461 429.13396465 244.86035854 431.01412576 244.51005554 432.89437866 C243.55119808 438.03098307 242.5838228 443.16595017 241.6147728 448.30064011 C240.77624932 452.74967576 239.94275326 457.19964788 239.10916042 461.64960957 C231.09430898 504.43032007 222.96363184 547.18942706 214.83402598 589.94846344 C213.57664244 596.56195688 212.31947577 603.17549154 211.0625 609.7890625 C210.851893 610.8971675 210.851893 610.8971675 210.63703132 612.02765846 C205.77989591 637.58502304 200.94631317 663.14679224 196.125 688.7109375 C195.87655692 690.02819175 195.87655692 690.02819175 195.6230948 691.3720572 C192.51890967 707.83070745 189.41597544 724.28959342 186.31576538 740.74899292 C185.85802626 743.17906293 185.40028469 745.60913248 184.9425422 748.03920186 C184.64052646 749.64262785 184.3385355 751.24605851 184.03656948 752.84949386 C182.419655 761.43505601 180.80054034 770.02019066 179.17460632 778.60404968 C178.74215596 780.88769446 178.30973586 783.17134496 177.87734878 785.45500171 C177.59087773 786.96795808 177.30435325 788.48090433 177.0177747 789.99384034 C175.24129442 799.37591164 173.48405766 808.76129624 171.75070947 818.15143496 C170.57474465 824.52123829 169.38929529 830.8892272 168.19716269 837.2560243 C167.36226767 841.71890003 166.53998659 846.18384136 165.72759581 850.65086508 C165.10830361 854.0334561 164.46923635 857.41225686 163.83325195 860.79174805 C163.51306186 862.58699071 163.51306186 862.58699071 163.18640327 864.4185009 C161.46268309 873.41974755 159.51949738 881.8635062 151.78710938 887.50144958 C147.1258356 890.23644546 142.71358521 891.25423856 137.40625 891.97680664 C135.44342169 892.29045593 133.4812128 892.60799807 131.51953125 892.92874146 C129.94196045 893.18072233 129.94196045 893.18072233 128.33251953 893.43779373 C122.3070832 894.45430333 116.32885075 895.70260803 110.34375 896.93139648 C109.00855829 897.20364486 107.67331837 897.47565688 106.33803272 897.74744415 C102.80124085 898.46788046 99.26504749 899.19121395 95.72896218 899.91510916 C91.88791344 900.70088249 88.04629906 901.48388174 84.20475769 902.26724243 C76.73370451 903.79116058 69.26315332 905.31752543 61.79277331 906.84473968 C53.02746682 908.63656878 44.26162707 910.42578252 35.49575984 912.21486604 C20.09268683 915.3586427 4.69002055 918.50440705 -10.71240234 921.65136719 C-28.18818225 925.22191836 -45.66464345 928.78912143 -63.14146292 932.3545804 C-134.57586914 946.92779681 -134.57586914 946.92779681 -205.99609375 961.5703125 C-207.27399591 961.83292562 -208.55189808 962.09553875 -209.86852455 962.36610985 C-221.84010742 964.82640361 -233.81145938 967.28780636 -245.78181171 969.75408077 C-256.08947577 971.87768461 -266.39849378 973.99445272 -276.71002674 976.09919643 C-282.08763526 977.19743889 -287.46395742 978.30156117 -292.83862305 979.41412354 C-298.60127046 980.60693479 -304.36600048 981.78917294 -310.13220978 982.96463966 C-312.31619313 983.41176698 -314.49942385 983.86258919 -316.6818161 984.31741905 C-319.70420669 984.94670865 -322.7290896 985.56236025 -325.75488281 986.17504883 C-326.63207726 986.36100679 -327.5092717 986.54696476 -328.41304779 986.73855782 C-346.75207909 990.39176384 -362.96465767 985.3437962 -380.125 979.3125 C-382.06737018 978.63924172 -384.01008561 977.96697876 -385.953125 977.2956543 C-390.98299967 975.55453789 -396.00806189 973.79999537 -401.03137207 972.04003906 C-403.90940297 971.03174007 -406.78806155 970.02525807 -409.66699219 969.01953125 C-411.03855217 968.54038521 -411.03855217 968.54038521 -412.43782043 968.05155945 C-413.34263657 967.73548233 -414.2474527 967.41940521 -415.1796875 967.09375 C-416.9914669 966.4607272 -418.80323455 965.82767076 -420.61499023 965.19458008 C-421.94806717 964.72878036 -421.94806717 964.72878036 -423.30807495 964.25357056 C-425.11056958 963.62343614 -426.91291621 962.99287825 -428.71511841 962.36190796 C-441.34734315 957.93947033 -454.0082533 953.61962602 -466.71377563 949.41268921 C-486.81488427 942.75697937 -506.85215603 935.91405567 -526.89355469 929.08105469 C-531.71117324 927.43872357 -536.52980464 925.79939525 -541.34895325 924.16156006 C-558.80262422 918.22904877 -576.23633117 912.24569875 -593.625 906.125 C-594.39546661 905.85388397 -595.16593323 905.58276794 -595.95974731 905.30343628 C-603.34346341 902.70450728 -610.72441709 900.09799548 -618.1015625 897.48046875 C-620.15099295 896.75767435 -622.20046808 896.03500662 -624.25 895.3125 C-625.12994629 894.99748535 -626.00989258 894.6824707 -626.91650391 894.35791016 C-631.59114986 892.71481869 -636.18669587 891.42136856 -641.05664062 890.49194336 C-646.6515173 889.07565234 -651.01738088 884.8025695 -654 880 C-656.44155059 874.18058975 -657.64668677 868.21968505 -658.51123047 861.99902344 C-658.63741036 861.14017957 -658.76359026 860.2813357 -658.89359379 859.39646626 C-659.30941315 856.55186083 -659.7133673 853.70570658 -660.1171875 850.859375 C-660.41221534 848.8227734 -660.70793248 846.78627154 -661.00428772 844.74986267 C-661.80366834 839.24100009 -662.59236235 833.73065591 -663.37882614 828.21993637 C-664.04961912 823.52882072 -664.72649462 818.83859035 -665.40328884 814.14833736 C-670.17818699 781.05178303 -674.84550689 747.94019655 -679.44848633 714.81933594 C-685.12799595 673.96047864 -690.90078481 633.11485711 -696.67135096 592.26878023 C-697.43279346 586.87884772 -698.1941202 581.48889885 -698.95540887 576.0989446 C-699.57543998 571.70919359 -700.1956032 567.31946131 -700.81604671 562.92976856 C-701.92345678 555.09403666 -703.03011648 547.25820365 -704.13228649 539.42173272 C-704.74399151 535.07273553 -705.35642911 530.72384174 -705.96923828 526.375 C-706.09078785 525.51230448 -706.21233742 524.64960896 -706.33757031 523.76077116 C-708.04595679 511.6456099 -709.78852705 499.53573722 -711.55397511 487.42876434 C-712.54935187 480.60139271 -713.53546225 473.7726909 -714.51952523 466.94368029 C-715.19030984 462.29367521 -715.86625638 457.64455279 -716.55504036 452.99717712 C-721.44525236 419.9696827 -721.44525236 419.9696827 -721.57836914 408.09570312 C-721.59211043 407.35545647 -721.60585173 406.61520981 -721.62000942 405.85253143 C-721.48492641 399.65816492 -719.06642338 394.73957167 -715.39990234 389.87866211 C-709.11997032 384.15700679 -701.56808214 382.0243589 -693.625 379.5625 C-692.03474659 379.05313457 -690.44508292 378.541925 -688.85595703 378.02905273 C-685.40161135 376.91817967 -681.94362296 375.81979125 -678.48242188 374.73046875 C-672.92320577 372.9796912 -667.37513332 371.19526576 -661.828125 369.40625 C-650.1546759 365.64645056 -638.46987433 361.92269725 -626.78326416 358.20404053 C-622.72819744 356.91349764 -618.67339189 355.62213676 -614.61865234 354.33056641 C-602.94603951 350.6125665 -591.27292816 346.89613341 -579.59912109 343.18188477 C-578.92086903 342.9660439 -578.24261696 342.75020304 -577.5438118 342.52782154 C-574.24836936 341.4793391 -570.95252549 340.43215352 -567.65576172 339.38783264 C-562.13508467 337.63806859 -556.61777612 335.88129516 -551.11572266 334.07373047 C-550.24443222 333.79022736 -549.37314178 333.50672424 -548.47544861 333.21463013 C-546.93257868 332.71180251 -545.39173456 332.20268019 -543.85377502 331.68502808 C-536.29606645 329.23612104 -527.39148528 327.88282581 -520 331.5625 C-515.2420581 335.4283278 -510.43200277 339.84238808 -509 346 C-508.39164488 352.37113726 -508.57708841 358.43776867 -512 364 C-515.5851821 368.2969462 -519.52233751 371.04975877 -524.80004883 372.88623047 C-525.77044098 373.22426697 -526.74083313 373.56230347 -527.7406311 373.9105835 C-534.04357239 376.01728835 -540.36639275 378.05576337 -546.69921875 380.0703125 C-548.2211475 380.55613978 -549.74302228 381.04213614 -551.2648468 381.52828979 C-554.45404529 382.54658946 -557.6437041 383.56342909 -560.83374023 384.57910156 C-564.81724086 385.84743761 -568.79987631 387.11846246 -572.78219414 388.39050674 C-585.97701351 392.60467688 -599.17296526 396.8146834 -612.39697266 400.93652344 C-613.1466031 401.17022329 -613.89623354 401.40392315 -614.66858006 401.64470482 C-618.22631913 402.75313539 -621.7848716 403.85886133 -625.34465027 404.96072388 C-626.58934586 405.34735199 -627.83404144 405.7339801 -629.11645508 406.13232422 C-630.20912186 406.47045135 -631.30178864 406.80857849 -632.42756653 407.1569519 C-634.95060097 407.91428982 -634.95060097 407.91428982 -637 409 C-568.2942799 436.2622835 -568.2942799 436.2622835 -499.55525208 463.44039917 C-498.80612045 463.73592682 -498.05698883 464.03145447 -497.28515625 464.3359375 C-496.53622604 464.63138458 -495.78729584 464.92683167 -495.01567078 465.23123169 C-485.61275887 468.94112707 -476.21264063 472.65808966 -466.8125 476.375 C-465.91419464 476.73019714 -465.01588928 477.08539429 -464.09036255 477.45135498 C-460.44966983 478.89093093 -456.80898521 480.33052735 -453.1683197 481.77017212 C-447.79360688 483.89549029 -442.41875911 486.0204666 -437.04373169 488.14498901 C-435.28205188 488.84132392 -433.52039425 489.53771492 -431.75875854 490.23416138 C-427.35928394 491.97341078 -422.95950257 493.71187561 -418.55908203 495.44873047 C-409.76552948 498.92091011 -400.97696883 502.40495977 -392.19813538 505.91421509 C-387.77304469 507.68256443 -383.34621971 509.44654913 -378.91928101 511.21026611 C-376.78041057 512.06384303 -374.642395 512.91956543 -372.50527954 513.77752686 C-369.53038005 514.97165993 -366.5526424 516.15843974 -363.57421875 517.34375 C-362.6918454 517.70018585 -361.80947205 518.0566217 -360.90036011 518.42385864 C-352.90255958 521.5913073 -347.53937991 522.25883385 -339.2109375 520.15625 C-338.35360016 519.94947632 -337.49626282 519.74270264 -336.61294556 519.52966309 C-333.86421163 518.8638714 -331.11970716 518.18217964 -328.375 517.5 C-326.61613759 517.07187933 -324.85702424 516.64478823 -323.09765625 516.21875 C-315.22025588 514.3039054 -307.35476059 512.34193374 -299.49243164 510.36621094 C-282.29913474 506.04676943 -265.07606104 501.86653626 -247.83088303 497.76051331 C-245.64431084 497.23971316 -243.45789125 496.71827686 -241.27151489 496.19665527 C-222.06375031 491.61437842 -202.84674951 487.07387449 -183.61520386 482.59231567 C-167.94384675 478.9394861 -152.29266091 475.20689008 -136.64816284 471.4407959 C-119.27377524 467.25841 -101.88948991 463.11912697 -84.5 459 C-66.24291055 454.67498862 -47.99178594 450.32661077 -29.75 445.9375 C-12.343206 441.74939919 5.07458645 437.60992642 22.5 433.5 C40.36938089 429.28497515 58.23065512 425.03861053 76.08035278 420.74099731 C90.23586859 417.33326667 104.39722143 413.95079159 118.56287193 410.58547783 C121.42279763 409.90603081 124.28267149 409.22636599 127.14253235 408.54664612 C135.73976682 406.50343617 144.33717795 404.46098788 152.93552589 402.42246819 C156.53839625 401.5678988 160.14090889 400.71182858 163.74333954 399.85540771 C165.42953755 399.45489224 167.11588887 399.05502155 168.80240631 398.65585327 C177.57667328 396.57888053 186.32441501 394.46501314 195 392 C193.84443604 391.57136154 193.84443604 391.57136154 192.66552734 391.13406372 C127.08891349 366.80789518 127.08891349 366.80789518 101 357 C81.18619359 349.55137399 61.34530247 342.17667888 41.5 334.8125 C21.22293328 327.28806138 0.94944518 319.75533747 -19.29467773 312.14257812 C-27.47901753 309.06564783 -35.66896803 306.00462546 -43.8671875 302.96484375 C-64.97563061 295.1370513 -86.04926309 287.24240023 -107 279 C-108.3460845 278.4772292 -109.6921955 277.95452661 -111.03833008 277.43188477 C-112.39155046 276.90148922 -113.74466161 276.37081489 -115.09765625 275.83984375 C-116.31718994 275.36409912 -117.53672363 274.88835449 -118.79321289 274.39819336 C-125.773695 271.35462876 -129.23256855 267.52705874 -132.1863308 260.59387398 C-133.63880587 255.96356809 -133.4532745 251.43658579 -133.31176758 246.62670898 C-133.29530843 245.54032607 -133.27884928 244.45394316 -133.26189137 243.33463955 C-133.20044825 239.88859184 -133.1052011 236.44497163 -133 233 C-132.96923244 231.91131245 -132.93846489 230.82262489 -132.90676498 229.70094681 C-132.67383915 221.78859471 -132.35215123 213.88101256 -132.01171875 205.97265625 C-131.90671099 203.47643927 -131.80179863 200.98021828 -131.69697571 198.48399353 C-131.47810741 193.30824378 -131.25469493 188.13271264 -131.02856445 182.95727539 C-130.74049209 176.34442565 -130.46936918 169.73099316 -130.2021513 163.11727238 C-129.99205499 157.98580969 -129.77039906 152.85489326 -129.54554176 147.72405815 C-129.44051776 145.28471876 -129.33965707 142.8451962 -129.24316978 140.40550423 C-129.10745821 137.00413876 -128.95547072 133.60386064 -128.79956055 130.20336914 C-128.76359268 129.21261383 -128.72762482 128.22185852 -128.69056702 127.20108032 C-127.85667035 110.28963056 -119.7293976 101.56874627 -108.61425781 89.72314453 C-105.97971178 86.91089016 -103.36472383 84.08067201 -100.75 81.25 C-100.00363281 80.4448999 -100.00363281 80.4448999 -99.2421875 79.62353516 C-95.57943751 75.66245613 -92.02013599 71.62070833 -88.5234375 67.51171875 C-87 66 -87 66 -85 66 C-84.73574219 65.40703125 -84.47148438 64.8140625 -84.19921875 64.203125 C-82.95629575 61.91970946 -81.69598354 60.52573277 -79.8125 58.75 C-77.36686407 56.37938358 -75.07456434 53.97498379 -72.875 51.375 C-69.59487514 47.56055616 -66.07476146 44.03435726 -62.5 40.5 C-58.38026753 36.42672631 -54.42298702 32.31025203 -50.671875 27.890625 C-47.9897864 24.85760892 -45.07266751 22.06491566 -42.19140625 19.22265625 C-40.1852981 17.1879405 -38.29886484 15.10414563 -36.4375 12.9375 C-35.29372391 11.62320683 -34.14785797 10.31072971 -33 9 C-32.38640625 8.29488281 -31.7728125 7.58976563 -31.140625 6.86328125 C-22.58048288 -2.39879252 -11.63113114 -6.10120239 0 0 Z M-85 146 C-85.68838909 156.99873108 -86.3526305 167.99878488 -87 179 C-87.04809814 179.81478821 -87.09619629 180.62957642 -87.14575195 181.46905518 C-88.27437263 200.65133872 -89.3888241 219.77480841 -89 239 C-74.08974334 244.83955348 -59.1080234 250.45741309 -44.0625 255.9375 C-28.16422781 261.72981071 -12.29172668 267.58815932 3.5625 273.5 C4.65387268 273.90692078 5.74524536 274.31384155 6.86968994 274.73309326 C21.29213833 280.11206086 35.70616626 285.51321904 50.11526489 290.92782593 C68.65703274 297.89310936 87.22977473 304.7750507 105.79935455 311.66572952 C125.77433757 319.07803952 145.74181877 326.50910189 165.6875 334 C167.62189555 334.72618756 169.55630282 335.45234392 171.49072266 336.1784668 C176.93058716 338.22052903 176.93058716 338.22052903 179.60791016 339.2256012 C182.07189258 340.15052748 184.5359254 341.07531931 187 342 C187.76826111 342.28830688 188.53652222 342.57661377 189.32806396 342.87365723 C194.00842234 344.6293774 198.69099351 346.37903603 203.375 348.125 C205.00828247 348.73794922 205.00828247 348.73794922 206.67456055 349.36328125 C207.63531494 349.72035156 208.59606934 350.07742188 209.5859375 350.4453125 C210.80869385 350.90188232 210.80869385 350.90188232 212.05615234 351.36767578 C213.97629917 352.10311331 213.97629917 352.10311331 216 352 C220.06930721 335.4077433 223.7182473 318.7310983 227.30371094 302.02929688 C228.09947143 298.32272285 228.89955764 294.61709725 229.70080948 290.91170692 C230.3253941 288.02093766 230.94767294 285.12967576 231.56926727 282.23826218 C231.86356527 280.87067563 232.15857761 279.50324259 232.45435333 278.13597488 C232.86547616 276.23389778 233.27313574 274.33107313 233.68066406 272.42822266 C234.02777435 270.8144725 234.02777435 270.8144725 234.38189697 269.16812134 C235.04086047 265.7905674 235.54045294 262.40992517 236 259 C228.9566099 256.11246358 221.85157356 253.47764606 214.6640625 250.97265625 C213.57709076 250.59181381 212.49011902 250.21097137 211.37020874 249.81858826 C207.78919779 248.56447568 204.20710263 247.31349065 200.625 246.0625 C198.08056867 245.17233331 195.53637934 244.28147591 192.9921875 243.390625 C187.67007351 241.52744241 182.34744433 239.66573892 177.02441406 237.80517578 C169.31502305 235.11048853 161.60659168 232.41306697 153.8984375 229.71484375 C151.4152034 228.84561725 148.93196772 227.97639524 146.44873047 227.10717773 C145.22168396 226.67766815 143.99463745 226.24815857 142.73040771 225.80563354 C138.97156308 224.49004715 135.21260479 223.17478579 131.45361328 221.85961914 C113.28910784 215.50410853 95.12921806 209.13551609 76.97128296 202.76126099 C60.48324816 196.97341315 43.99170358 191.19566942 27.49727249 185.42607975 C7.02633181 178.26547521 -13.44258113 171.09910697 -33.90274048 163.90774536 C-36.16755221 163.11182962 -38.43249949 162.31629947 -40.69760132 161.52120972 C-52.94098604 157.22293478 -65.1659917 152.8825401 -77.34408569 148.40202332 C-78.20587433 148.08606705 -79.06766296 147.77011078 -79.95556641 147.44458008 C-80.7152774 147.16471756 -81.4749884 146.88485504 -82.25772095 146.59651184 C-83.85075345 145.94601406 -83.85075345 145.94601406 -85 146 Z M187.90722656 439.06640625 C186.91297668 439.30085449 185.91872681 439.53530273 184.89434814 439.77685547 C183.82061951 440.03611816 182.74689087 440.29538086 181.640625 440.5625 C180.5051825 440.8320752 179.36973999 441.10165039 178.19989014 441.37939453 C174.54865652 442.24769506 170.89934275 443.12379044 167.25 444 C164.90246233 444.55909188 162.55480701 445.11769001 160.20703125 445.67578125 C146.67278674 448.89839257 133.15105007 452.17221794 119.63134575 455.45514488 C104.57379039 459.1109127 89.50389644 462.71419691 74.43129349 466.30734253 C68.53936538 467.71208137 62.64772438 469.11802448 56.75602531 470.5237236 C54.5623441 471.04709064 52.36864323 471.57037523 50.17494202 472.09365845 C42.05812817 474.03006793 33.94233546 475.97067494 25.828125 477.91796875 C4.05842545 483.14076067 -17.7268298 488.29474865 -39.52108002 493.41395187 C-59.96121726 498.21510922 -80.3983415 503.02673779 -100.8125 507.9375 C-101.78096863 508.17042755 -102.74943726 508.4033551 -103.74725342 508.64334106 C-108.86146273 509.87364166 -113.9754392 511.10490778 -119.08935547 512.33642578 C-133.0162188 515.68963618 -146.94498468 519.03490929 -160.875 522.375 C-162.00655832 522.64637346 -162.00655832 522.64637346 -163.16097641 522.92322922 C-186.38790365 528.49293355 -209.63403376 533.97376118 -232.90029907 539.37670898 C-248.366695 542.96875675 -263.81657331 546.61405186 -279.23431396 550.40966797 C-292.23860275 553.61067777 -305.28382269 556.61439513 -318.35571289 559.52685547 C-319.42061699 559.76618301 -319.42061699 559.76618301 -320.5070343 560.01034546 C-322.42433772 560.44121273 -324.34251187 560.86820012 -326.26074219 561.29492188 C-328.89491469 561.72540679 -328.89491469 561.72540679 -330 563 C-330.07543079 566.01408601 -330.08421668 569.00438468 -330.05105591 572.01805115 C-330.04444879 572.97821595 -330.03784168 573.93838075 -330.03103435 574.92764145 C-330.0074266 578.17764713 -329.97656729 581.427545 -329.94580078 584.67749023 C-329.92743443 587.00182259 -329.90951102 589.32615849 -329.89199829 591.65049744 C-329.84268133 598.02623811 -329.78708182 604.40191103 -329.73046732 610.77759051 C-329.67680238 616.87511826 -329.62879798 622.97269179 -329.58024631 629.07026196 C-329.48274184 641.29646868 -329.38070666 653.52263334 -329.27587891 665.7487793 C-329.17663689 677.32460791 -329.07925389 688.90044911 -328.98486328 700.47631836 C-328.97918304 701.17283836 -328.97350281 701.86935837 -328.96765044 702.58698504 C-328.93903843 706.09702578 -328.91046787 709.60706687 -328.88191652 713.11710811 C-328.687102 737.06101431 -328.48805235 761.00488321 -328.28613281 784.94873047 C-328.09008596 808.19773213 -327.89658912 831.44675326 -327.70605469 854.69580078 C-327.700138 855.41775564 -327.69422132 856.13971051 -327.68812534 856.88354279 C-327.6186387 865.36370056 -327.549267 873.84385926 -327.4799533 882.32401844 C-327.41948705 889.72150088 -327.35892741 897.11898254 -327.29837036 904.51646423 C-327.19882924 916.67764213 -327.09937746 928.83882076 -327 941 C-319.96977255 939.95210247 -312.97223077 938.87454002 -306.01367188 937.42211914 C-305.31039166 937.27633203 -304.60711145 937.13054491 -303.88251972 936.98034 C-301.57727171 936.50171477 -299.27302955 936.01842042 -296.96875 935.53515625 C-295.29529075 935.18691498 -293.62176057 934.8390144 -291.94816589 934.49142456 C-288.35556617 933.74473706 -284.76336973 932.99615035 -281.17147827 932.24606323 C-272.34256809 930.40269437 -263.51128433 928.57074491 -254.68015099 926.7380619 C-252.62588919 926.31171957 -250.57165076 925.88526461 -248.51743507 925.45870018 C-227.52204876 921.09912138 -206.51531698 916.79616228 -185.50444794 912.51190567 C-176.75933403 910.72868385 -168.0144318 908.94442399 -159.26953125 907.16015625 C-158.26971725 906.95618162 -157.26990326 906.75220699 -156.23979187 906.54205132 C-139.26578981 903.07883919 -122.29449682 899.6025045 -105.32421875 896.12109375 C-102.82396493 895.60821293 -100.32371061 895.09533453 -97.82345581 894.5824585 C-94.0187449 893.80198471 -90.21403498 893.02150609 -86.40932655 892.2410202 C-50.0086171 884.77397246 -13.60583671 877.31781786 22.80859375 869.91796875 C23.52320204 869.77274686 24.23781033 869.62752497 24.97407341 869.47790241 C38.89649079 866.64868872 52.8192887 863.82135185 66.74279326 860.99749321 C72.47454743 859.8350226 78.20616945 858.67190136 83.93776131 857.50863075 C87.40567691 856.80508433 90.87378429 856.10248914 94.34190369 855.39994812 C96.43570878 854.97509269 98.52950508 854.55019398 100.62329102 854.12524414 C101.54970461 853.9378813 102.4761182 853.75051846 103.43060493 853.55747795 C105.14243083 853.20966298 106.85268535 852.85398653 108.56094551 852.48906136 C110.22213574 852.15597165 111.89399386 851.87306263 113.57142448 851.63488579 C115.85679927 851.2688769 117.8648516 850.89376675 120 850 C121.66057903 847.35561672 121.66057903 847.35561672 122 844 C122.38736076 842.22732506 122.38736076 842.22732506 122.782547 840.4188385 C123.04134144 839.06657419 123.2955986 837.71343636 123.54614258 836.35961914 C123.6887511 835.60789177 123.83135962 834.8561644 123.9782896 834.08165741 C124.45432816 831.56688652 124.92440086 829.05103781 125.39453125 826.53515625 C125.73673024 824.72103492 126.07931061 822.90698549 126.42224121 821.09300232 C127.1641849 817.16401757 127.90349022 813.23454867 128.64077759 809.3046875 C129.83282369 802.95104593 131.03062849 796.59849804 132.22924805 790.24609375 C133.72269511 782.32903432 135.21470861 774.41170716 136.70496845 766.49404716 C139.50304358 751.62851482 142.31141199 736.76494719 145.125 721.90234375 C145.3372522 720.78108534 145.54950439 719.65982693 145.76818848 718.50459099 C146.63062132 713.94874264 147.49309476 709.39290197 148.35565186 704.83707714 C150.55736378 693.20783609 152.75698136 681.57819915 154.95651245 669.94854546 C159.00755423 648.52954052 163.06082504 627.11095822 167.11535645 605.6926136 C170.83467032 586.04475557 174.55106642 566.39634708 178.26538086 546.74754333 C180.53462898 534.74401514 182.806534 522.74099566 185.08197498 510.73863983 C186.62469317 502.60040101 188.16490195 494.46169 189.70308971 486.32259369 C190.5885618 481.63777915 191.47526191 476.95320533 192.36514282 472.26922607 C193.1777647 467.99182537 193.98707027 463.7138114 194.79368591 459.43527412 C195.08643002 457.8857797 195.38042452 456.33652091 195.67576599 454.78751945 C196.07536951 452.69075115 196.47050634 450.59318946 196.86450195 448.49536133 C197.08539993 447.32902664 197.30629791 446.16269196 197.53388977 444.96101379 C198.10366728 441.84102214 198.10366728 441.84102214 198 438 C194.44237207 437.89131544 191.36541154 438.24095019 187.90722656 439.06640625 Z M-673 443 C-670.06669959 466.0514133 -666.89416921 489.06769103 -663.62890625 512.07421875 C-663.5296707 512.77342453 -663.43043516 513.47263032 -663.32819247 514.19302416 C-662.07135316 523.04633036 -660.81118777 531.89916206 -659.55011421 540.75186598 C-658.31969657 549.39027659 -657.09234143 558.02912202 -655.86499023 566.66796875 C-655.4129344 569.84958118 -654.96085853 573.03119075 -654.5087738 576.21279907 C-654.39705851 576.99902165 -654.28534321 577.78524423 -654.17024261 578.59529173 C-653.38329727 584.13334478 -652.59599088 589.67134643 -651.80848694 595.20932007 C-648.05031251 621.63820092 -644.30051859 648.06825998 -640.5625 674.5 C-640.42433113 675.47691929 -640.28616226 676.45383858 -640.14380646 677.46036148 C-635.85839308 707.76282317 -631.59734238 738.06867825 -627.35694504 768.37747192 C-626.94804956 771.29960844 -626.53888952 774.22170779 -626.12966919 777.14379883 C-625.61400664 780.82610817 -625.09933753 784.50855437 -624.58537292 788.19110107 C-624.09543933 791.70074199 -623.60179859 795.20983165 -623.10542297 798.71856689 C-622.00932022 806.49996874 -620.94892572 814.2814553 -620.01658154 822.08439445 C-619.60113111 825.55818164 -619.17080001 829.03006871 -618.74041939 832.50203323 C-618.44860064 834.91702422 -618.18142731 837.33392304 -617.91477966 839.75180054 C-617.73556097 841.20529725 -617.55513566 842.65864589 -617.37329102 844.11181641 C-617.22779312 845.37490631 -617.08229523 846.63799622 -616.93238831 847.93936157 C-616.27402191 851.15854812 -616.27402191 851.15854812 -613.59469604 852.86120605 C-610.70011412 854.13161781 -607.82398495 855.20234141 -604.81640625 856.1796875 C-604.19417175 856.38428589 -603.57193726 856.58888428 -602.93084717 856.79968262 C-601.54982948 857.25332322 -600.16793698 857.70430689 -598.78530884 858.15301514 C-594.78453069 859.45249767 -590.79123436 860.77469672 -586.796875 862.09375 C-585.89765823 862.39018402 -584.99844147 862.68661804 -584.07197571 862.99203491 C-571.47195785 867.15302445 -558.90905729 871.42479202 -546.34283829 875.68649292 C-544.30499371 876.37754546 -542.26705802 877.06832868 -540.22909546 877.7590332 C-519.91884105 884.64286188 -499.61805026 891.55410391 -479.32725525 898.49508667 C-470.48396991 901.51964092 -461.63729726 904.53424832 -452.79064941 907.5489502 C-447.28839359 909.42411205 -441.78644316 911.30016979 -436.28442383 913.17602539 C-430.67071531 915.08984637 -425.05667344 917.0026862 -419.44244385 918.91497803 C-415.72378104 920.18185602 -412.00541164 921.44959355 -408.28710938 922.7175293 C-406.54472083 923.31148181 -404.80221244 923.9050829 -403.05957031 924.49829102 C-400.63574176 925.3234292 -398.21230165 926.14969513 -395.7890625 926.9765625 C-395.03441711 927.23371033 -394.27977173 927.49085815 -393.5022583 927.75579834 C-389.93620781 928.97573465 -386.38004146 930.21632053 -382.83886719 931.50683594 C-382.19202972 931.74212006 -381.54519226 931.97740417 -380.87875366 932.21981812 C-379.15094165 932.85180028 -377.42570388 933.4908081 -375.70068359 934.13037109 C-372.99693925 935.15325247 -372.99693925 935.15325247 -370 935 C-369.94148209 901.70886577 -370.08504263 868.42289916 -370.37092662 835.13303733 C-370.42516684 828.77309483 -370.47724608 822.4131345 -370.52967834 816.05317688 C-370.6182174 805.35257752 -370.70835841 794.65199292 -370.79956055 783.95141602 C-370.89143845 773.17148183 -370.98164899 762.39153538 -371.07006836 751.61157227 C-371.59150615 688.0727395 -372.17161271 624.53564634 -373 561 C-377.09742485 559.36011258 -381.19493803 557.72044611 -385.29252815 556.08097172 C-386.68231448 555.52487417 -388.07207795 554.96871947 -389.46181679 554.41250324 C-399.2172351 550.50814353 -408.97877706 546.6200778 -418.75634766 542.77148438 C-422.68982168 541.22311525 -426.62218319 539.67192369 -430.5546875 538.12109375 C-431.38716003 537.79285614 -432.21963257 537.46461853 -433.07733154 537.12643433 C-443.72236755 532.92810533 -454.36086389 528.71325152 -465 524.5 C-479.22590248 518.86670102 -493.45403265 513.23915737 -507.6875 507.625 C-524.11767406 501.14428843 -540.53795495 494.63870278 -556.95687866 488.12954712 C-570.3811496 482.80765803 -583.80878023 477.49457923 -597.24435425 472.20129395 C-612.32531536 466.25893047 -627.38612173 460.26689894 -642.4375 454.25 C-643.42137695 453.85696686 -644.40525391 453.46393372 -645.41894531 453.05899048 C-648.21590035 451.94137935 -651.01233991 450.82248919 -653.80859375 449.703125 C-654.63600571 449.372556 -655.46341766 449.041987 -656.31590271 448.70140076 C-659.86748167 447.27793744 -663.39397037 445.83063405 -666.88696289 444.26855469 C-669.90276801 442.8113158 -669.90276801 442.8113158 -673 443 Z " fill="#000000" transform="translate(1226,516)"/>
<path d="M0 0 C1.42722904 0.47807376 2.85496409 0.95463959 4.28320312 1.4296875 C7.51730983 2.50866199 10.74761007 3.59833907 13.97631836 4.69335938 C21.47556245 7.23293043 28.98816267 9.73237555 36.5 12.234375 C38.04365317 12.74870968 39.58730343 13.26305309 41.13095093 13.77740479 C50.61847004 16.93830454 60.10694978 20.09631741 69.59558773 23.25385666 C77.19912978 25.78412065 84.8023672 28.31529879 92.40541935 30.84703445 C97.25251652 32.46099912 102.09980538 34.07438343 106.94750977 35.68652344 C127.80391083 42.62293895 148.64988664 49.58393784 169.4278717 56.75244141 C181.16364035 60.80048907 192.93076228 64.75081891 204.72125244 68.63676453 C212.26927984 71.1264373 219.79185161 73.68363794 227.30305481 76.28234863 C232.18952208 77.96998164 237.0817032 79.64069036 241.97445679 81.30999756 C244.38985189 82.13872032 246.80269688 82.9749168 249.21279907 83.81890869 C252.61593451 85.00959642 256.02728972 86.17327094 259.44140625 87.33203125 C260.45152771 87.69282272 261.46164917 88.0536142 262.50238037 88.42533875 C269.46970012 90.75033449 274.85443753 91.01428497 282.0625 89.75 C283.2114122 89.54896164 284.3603244 89.34792328 285.54405212 89.14079285 C289.69887035 88.36918068 293.83919597 87.53973973 297.98046875 86.69921875 C299.60666355 86.37391889 301.2329803 86.04922821 302.85940552 85.7250824 C306.42091103 85.01440695 309.98175674 84.30054222 313.54214478 83.58428955 C323.69944129 81.54180198 333.86167205 79.52401762 344.0234375 77.50390625 C345.13698168 77.28236626 346.25052586 77.06082626 347.3978138 76.83257294 C377.3696658 70.87148948 407.36985917 65.0562341 437.3690446 59.23464948 C451.39249792 56.51326598 465.41551033 53.78961102 479.43842959 51.06547713 C480.97632603 50.76672351 482.51422457 50.46798073 484.05212522 50.16924882 C513.35341601 44.47752959 542.64778509 38.75101786 571.9375 33 C574.00206381 32.5946797 576.06662883 32.18936554 578.13119507 31.78405762 C582.17171062 30.99082171 586.21222277 30.19756842 590.25273132 29.40429688 C591.72404794 29.1154361 591.72404794 29.1154361 593.22508812 28.82073975 C595.17936736 28.43704975 597.13364316 28.05334226 599.08791542 27.6696167 C613.29185341 24.88072012 627.49684139 22.09723687 641.703125 19.3203125 C642.61431973 19.14219528 643.52551445 18.96407806 644.46432114 18.78056335 C654.07647078 16.9019084 663.68920485 15.02629894 673.30322266 13.15722656 C674.1157078 12.99925095 674.92819294 12.84127533 675.76529884 12.67851257 C682.44444643 11.37987733 682.44444643 11.37987733 685.34933853 10.81538391 C694.68643243 9.00052779 704.01964245 7.16779718 713.34750366 5.30606079 C718.22542887 4.33372551 723.10518211 3.37079516 727.98529053 2.40948486 C730.1537682 1.97967177 732.32134556 1.54528337 734.487854 1.10565186 C764.45057966 -4.972668 764.45057966 -4.972668 773.44921875 0.48046875 C777.68052044 3.81018557 780.35352683 7.62308049 782.0625 12.75 C782.93643819 20.11750216 782.63338471 26.70507259 778.0625 32.75 C770.80139684 41.00809401 760.34988581 42.26799996 750.02734375 44.23046875 C748.3484481 44.55704216 748.3484481 44.55704216 746.63563538 44.89021301 C743.09148726 45.57827822 739.54580191 46.25801442 736 46.9375 C733.58387765 47.40504777 731.16786082 47.87314121 728.75195312 48.34179688 C722.85667457 49.48417863 716.9601144 50.61974266 711.0625 51.75 C711.84568604 52.52923828 712.62887207 53.30847656 713.43579102 54.11132812 C724.78160512 65.50881477 732.25283863 79.11871362 732.38476562 95.4296875 C732.38154297 96.31914063 732.37832031 97.20859375 732.375 98.125 C732.39111328 99.00671875 732.40722656 99.8884375 732.42382812 100.796875 C732.4349586 115.9788415 725.43642552 128.97273367 715.0625 139.75 C700.92239111 152.21534337 684.8084796 155.76596401 666.50683594 154.94091797 C652.794981 153.86993609 639.40666719 146.76160771 630.0625 136.75 C620.07488644 124.56845459 614.24205492 109.93946983 615.30859375 94.09375 C616.34080027 85.10533216 617.97681692 76.37852461 623.0625 68.75 C622.41773712 68.87733521 621.77297424 69.00467041 621.1086731 69.13586426 C613.19494208 70.69853862 605.28091099 72.25968923 597.36676025 73.82023621 C595.19468162 74.24858374 593.02263184 74.67707734 590.85058594 75.10559082 C573.02235529 78.62235033 555.19048688 82.11973382 537.35216904 85.58499146 C534.50898765 86.13736109 531.66587546 86.69008548 528.82278442 87.24291992 C526.94549724 87.60791855 525.06820843 87.97290882 523.19091797 88.33789062 C522.26801783 88.51732208 521.34511768 88.69675354 520.39425087 88.88162231 C514.84839263 89.95952179 509.30200226 91.03463556 503.75525093 92.10792923 C500.28087472 92.78082015 496.80696232 93.456082 493.33316422 94.13195038 C491.705774 94.44802208 490.07817966 94.76304474 488.4503746 95.07697296 C486.2228984 95.50665277 483.99614414 95.93989569 481.76953125 96.37402344 C480.5163208 96.61683044 479.26311035 96.85963745 477.97192383 97.10980225 C475.14261645 97.60804557 475.14261645 97.60804557 473.0625 98.75 C473.805 99.30558594 474.5475 99.86117188 475.3125 100.43359375 C484.69673562 108.33821267 490.96048407 120.74576353 493.0625 132.75 C493.35277633 136.21361866 493.38758825 139.65064398 493.375 143.125 C493.39111328 144.00671875 493.40722656 144.8884375 493.42382812 145.796875 C493.4349586 160.9788415 486.43642552 173.97273367 476.0625 184.75 C461.92239111 197.21534337 445.8084796 200.76596401 427.50683594 199.94091797 C413.794981 198.86993609 400.40666719 191.76160771 391.0625 181.75 C381.07488644 169.56845459 375.24205492 154.93946983 376.30859375 139.09375 C377.2179369 131.17522201 378.92416709 124.07785499 382.0625 116.75 C375.2418836 117.41878241 368.58421625 118.49950549 361.85546875 119.7890625 C360.78888535 119.99092163 359.72230194 120.19278076 358.62339783 120.40075684 C356.34461447 120.83258473 354.06612296 121.26595509 351.78790283 121.70074463 C348.21286774 122.38207669 344.6366102 123.05665825 341.06005859 123.72998047 C330.47922639 125.72760424 319.90845888 127.75227893 309.37109375 129.96875 C307.78173158 130.29772429 306.19229721 130.62635 304.6027832 130.95458984 C301.79447365 131.53462916 298.9943376 132.14173563 296.19604492 132.76806641 C274.25763531 137.30914445 256.00317168 134.21452297 235.04576588 126.86608601 C231.77837553 125.72908222 228.49727918 124.63294979 225.2177124 123.53167725 C219.00307291 121.43820894 212.80102933 119.30980206 206.60296798 117.16781592 C199.67555691 114.77567493 192.73488178 112.42329755 185.79275608 110.07427084 C170.95632402 105.05268119 156.14032173 99.9729454 141.33016968 94.87439346 C134.18018129 92.414108 127.02693347 89.96332125 119.87407684 87.51139069 C117.85922155 86.82017366 115.84483522 86.12761053 113.83062744 85.43450928 C104.5915925 82.25899282 95.33132774 79.14970172 86.0625 76.0625 C85.16459747 75.76334183 84.26669495 75.46418365 83.34158325 75.15596008 C81.25281169 74.46098644 79.16362234 73.76728959 77.07421875 73.07421875 C75.47183394 72.54218056 73.86945813 72.01011528 72.26708984 71.47802734 C71.43079041 71.20037537 70.59449097 70.92272339 69.73284912 70.63665771 C19.10923886 53.82768909 19.10923886 53.82768909 -4.40176392 45.84075928 C-6.15191834 45.24662173 -7.90253715 44.65385006 -9.65365601 44.06256104 C-37.6721937 34.59470506 -37.6721937 34.59470506 -42.2578125 26.38671875 C-45.03832304 19.97987803 -45.92860245 14.54317308 -43.9375 7.75 C-41.52764415 1.87954546 -36.65821872 -1.85941043 -31.125 -4.6875 C-19.86239482 -6.67501856 -10.53495769 -3.6189562 0 0 Z " fill="#000000" transform="translate(608.9375,1438.25)"/>
<path d="M0 0 C0.6192334 0.44843262 1.2384668 0.89686523 1.87646484 1.35888672 C9.51843103 6.90255652 16.93213588 12.5562539 23.84765625 19 C25.82869194 20.84081719 27.86437254 22.57724643 29.9375 24.3125 C62.60605443 52.91388501 85.08177086 95.7323239 93 138 C93.18546387 138.9892749 93.37092773 139.9785498 93.56201172 140.99780273 C95.17484116 150.75319083 95.37233651 160.40462056 95.37060547 170.27416992 C95.3749556 173.03433078 95.41134145 175.79285679 95.44921875 178.55273438 C95.55964387 195.90521134 93.21083763 212.31951378 86.171875 228.26171875 C84.86885187 230.81003244 84.86885187 230.81003244 85 233 C87.8741343 234.43706715 90.41571546 234.18338602 93.625 234.24609375 C94.98568233 234.27908131 96.34635926 234.31229198 97.70703125 234.34570312 C99.84158927 234.39272089 101.97613379 234.43705558 104.11083984 234.47680664 C119.00719891 234.76762871 132.63184598 236.19320499 144.53125 246.109375 C152.23561755 254.21620951 154.63812134 262.49291841 154.54345703 273.53344727 C153.64411978 294.61195534 136.71604493 311.90143822 123.56640625 327.00390625 C121.06263109 329.83985791 121.06263109 329.83985791 119.27734375 332.40234375 C118.64505859 333.19318359 118.64505859 333.19318359 118 334 C117.34 334 116.68 334 116 334 C115.74605469 334.58265625 115.49210937 335.1653125 115.23046875 335.765625 C113.86679667 338.24188033 112.35774797 339.80520626 110.3125 341.75 C107.67519968 344.26574139 105.23368317 346.86471399 102.86328125 349.62890625 C98.44297974 354.72483589 93.66586691 359.44263108 88.875 364.1875 C87.99457031 365.06341797 87.11414063 365.93933594 86.20703125 366.84179688 C83.80647912 369.22967641 81.40338989 371.61497752 79 374 C75.94121138 377.04947724 72.8966422 380.11266743 69.85546875 383.1796875 C68.29954101 384.74485315 66.7435498 386.3099557 65.1875 387.875 C64.41857422 388.65230469 63.64964844 389.42960937 62.85742188 390.23046875 C58.07156456 395.03651956 53.15749317 399.59714719 48 404 C46.8703533 404.98482839 45.74141712 405.97047253 44.61328125 406.95703125 C26.37678758 422.77798696 6.62141289 439.9015399 -17.1953125 446.11328125 C-20.04861981 446.87758358 -20.04861981 446.87758358 -22.421875 448.578125 C-28.23891448 451.78631041 -36.70742634 450.71099277 -43.0390625 449.34375 C-66.26552245 441.579285 -86.01162169 418.76624814 -101.49365234 400.74926758 C-103.5651816 398.34367485 -105.72098112 396.0192073 -107.875 393.6875 C-111.99906676 389.17096163 -115.87936865 384.50866984 -119.71875 379.75 C-122.06718968 376.91900422 -124.50909902 374.20616402 -127 371.5 C-131.8933621 366.16999944 -136.47297448 360.64216558 -141 355 C-141.91225289 353.87979484 -142.82503803 352.76002295 -143.73828125 351.640625 C-200.95455055 281.22060124 -200.95455055 281.22060124 -198 245 C-196.75968375 238.54615101 -194.14167403 233.19595386 -189 229 C-178.49738775 222.67222292 -167.71289626 224.58033175 -156.43725586 227.34985352 C-153.62560044 228.05757052 -150.8186734 228.78010005 -148.01855469 229.53222656 C-141.06521409 231.38573646 -135.6108421 232.80167656 -128.76953125 230.0546875 C-124.03307356 227.23163325 -123.10135923 223.82745166 -121.68701172 218.71582031 C-115.70812294 195.0807248 -118.52716494 170.67153065 -131.07226562 149.52880859 C-146.65283556 124.67766311 -171.30471984 111.31026815 -199.35058594 104.58154297 C-215.61351876 101.01185019 -232.08399408 99.97521064 -248.6875 99.5625 C-312.53818097 97.72376477 -312.53818097 97.72376477 -331.00390625 80.0859375 C-337.93183018 72.59394461 -340.35016869 64.87652216 -340.21484375 54.7421875 C-338.80137641 36.70120436 -326.29161049 20.48378711 -313 9 C-302.88321859 0.8194447 -291.62199789 -6.75112066 -278.75 -9.5 C-273.4432533 -10.65758207 -270.16441201 -12.72122696 -265.875 -15.97265625 C-192.77087066 -67.52298658 -68.80486409 -50.55621272 0 0 Z M-270 20 C-271.0828125 20.66128906 -272.165625 21.32257813 -273.28125 22.00390625 C-280.75110557 26.67256598 -287.97153415 31.73200193 -295.19506836 36.77050781 C-296.85709499 37.90265527 -298.56377819 38.96849747 -300.2734375 40.02734375 C-305.45682553 43.77750271 -308.39153223 49.47920497 -309.875 55.625 C-309.91625 56.40875 -309.9575 57.1925 -310 58 C-297.12241281 69.33607122 -274.72652381 68.92864615 -258.375 69.39453125 C-256.36169898 69.46016647 -254.34843481 69.52694001 -252.33520508 69.59472656 C-251.29973541 69.62957153 -250.26426575 69.6644165 -249.19741821 69.70031738 C-206.60485355 71.19469349 -162.15180563 76.50881366 -129 106 C-128.16082031 106.69609375 -127.32164062 107.3921875 -126.45703125 108.109375 C-105.79488227 125.66419305 -93.34842752 152.40416967 -90 179 C-89.76285166 183.91400111 -89.7543042 188.83081427 -89.75 193.75 C-89.74932526 194.44019226 -89.74865051 195.13038452 -89.74795532 195.8414917 C-89.77737989 214.81236125 -90.50865926 235.50687663 -104.54296875 249.84375 C-113.5500407 257.74820742 -123.64223745 261.57884699 -135.5625 261.4375 C-136.42294922 261.43427734 -137.28339844 261.43105469 -138.16992188 261.42773438 C-145.40142658 261.27296416 -151.89697281 259.91564737 -158.8125 257.875 C-162.09198127 256.82352201 -162.09198127 256.82352201 -166 257 C-161.45023863 283.9523907 -138.67200587 309.32306001 -122 330 C-121.24203125 330.94101562 -120.4840625 331.88203125 -119.703125 332.8515625 C-114.37471167 339.40815621 -108.92798037 345.86358687 -103.45019531 352.29541016 C-101.98196961 354.02119329 -100.51826467 355.75074272 -99.0546875 357.48046875 C-93.59522377 363.91266743 -88.03930739 370.22826929 -82.27172852 376.38671875 C-79.72664975 379.10721189 -77.2476176 381.86500344 -74.8203125 384.69140625 C-70.61141199 389.52063236 -66.14121046 394.08051765 -61.62182617 398.6184082 C-60.19303138 400.05693096 -58.77530596 401.50581082 -57.35742188 402.95507812 C-49.97764511 410.3758252 -42.42091084 417.00810068 -32.625 421 C-31.64789062 421.4125 -30.67078125 421.825 -29.6640625 422.25 C-26.81752318 423.05137177 -25.67722036 423.17931837 -23 422 C-21.22614543 420.62433685 -21.22614543 420.62433685 -19.4375 418.8125 C-14.74743714 414.48860484 -9.71691336 410.75301516 -4.5625 407 C2.08836276 402.14723661 8.66843996 397.26760761 15 392 C16.49853516 390.76056641 16.49853516 390.76056641 18.02734375 389.49609375 C28.16839991 381.0480073 37.9194072 372.20458597 47.17578125 362.79296875 C49.05537183 360.94557672 51.00277139 359.21908459 53 357.5 C57.18502646 353.88792359 61.3802593 350.18773192 65 346 C65 345.34 65 344.68 65 344 C65.66 344 66.32 344 67 344 C68.4323278 342.58352329 68.4323278 342.58352329 69.9375 340.6875 C72.96879287 337.11196665 76.162397 333.79169374 79.5 330.5 C83.16780008 326.87711678 86.67598595 323.18586414 90.015625 319.2578125 C91.59651953 317.45907818 93.20431039 315.72111981 94.859375 313.9921875 C114.00014581 295.24053519 114.00014581 295.24053519 124.24609375 271.8125 C124.290233 268.92019693 124.290233 268.92019693 122.25 267.1875 C118.27996613 265.09220435 114.68493303 264.85894602 110.23046875 264.75390625 C108.53627808 264.7070166 108.53627808 264.7070166 106.80786133 264.65917969 C105.61314209 264.62727539 104.41842285 264.59537109 103.1875 264.5625 C73.29003891 263.55727727 73.29003891 263.55727727 66 257 C61.10829753 251.73201273 60.78488046 247.69474046 60.84423828 240.76757812 C61.16274366 233.06354195 62.08965098 225.41058242 62.9375 217.75 C67.78801622 173.4523093 66.70237465 133.09348154 45 93 C44.43410156 91.95199219 43.86820313 90.90398437 43.28515625 89.82421875 C33.47678369 72.39993337 20.55135556 56.67883714 6 43 C5.40574219 42.43539062 4.81148437 41.87078125 4.19921875 41.2890625 C-5.53290802 32.41136227 -16.72597345 24.76135649 -28 18 C-29.62615234 16.99066406 -29.62615234 16.99066406 -31.28515625 15.9609375 C-57.24348084 0.28480642 -87.2346343 -8.2703469 -117 -13 C-117.68884277 -13.11714355 -118.37768555 -13.23428711 -119.08740234 -13.35498047 C-172.97673195 -22.26810871 -224.27880671 -7.99276236 -270 20 Z " fill="#000000" transform="translate(908,527)"/>
<path d="M0 0 C4.34473891 3.24060072 8.16626127 7.23706507 9.890625 12.41015625 C10.55159832 19.84138491 11.09300818 26.685451 6.34375 32.8046875 C5.86421875 33.33449219 5.3846875 33.86429688 4.890625 34.41015625 C4.106875 35.31765625 3.323125 36.22515625 2.515625 37.16015625 C-6.30932297 43.88773061 -22.64189245 44.94258169 -33.3984375 47.2890625 C-35.07169132 47.65680405 -36.74487136 48.02488146 -38.41798401 48.39326477 C-41.99013053 49.17922187 -45.56268577 49.96328139 -49.1355896 50.74578857 C-57.78783354 52.64096849 -66.43778236 54.5465824 -75.08784294 56.4516983 C-77.08594168 56.89173099 -79.08406631 57.33164613 -81.08221626 57.77144623 C-101.93776801 62.36207806 -122.77897572 67.01587154 -143.61712646 71.68476105 C-151.55310008 73.46280866 -159.48929353 75.23987351 -167.42578125 77.015625 C-168.27054646 77.20463882 -169.11531166 77.39365265 -169.98567581 77.58839417 C-187.77770783 81.56812777 -205.58193185 85.49134516 -223.38970947 89.39996338 C-237.84825205 92.57412727 -252.29252001 95.79861725 -266.71505737 99.13244629 C-280.13469625 102.2309243 -293.59854527 105.11031032 -307.07177734 107.96557617 C-316.20409684 109.9050713 -325.32168118 111.89499845 -334.421875 113.98046875 C-335.34063919 114.1904097 -336.25940338 114.40035065 -337.20600891 114.61665344 C-341.60873251 115.62368476 -346.00927751 116.63900082 -350.40698242 117.66772461 C-351.98870631 118.03136234 -353.57049021 118.39473917 -355.15234375 118.7578125 C-355.85774292 118.92608551 -356.56314209 119.09435852 -357.28991699 119.26773071 C-365.84710297 121.21305122 -374.32721703 120.93025661 -381.9765625 116.2734375 C-387.08102745 112.24827484 -389.52219194 107.72175761 -390.3828125 101.40234375 C-390.70118255 94.76555275 -388.70913264 89.93978396 -385.109375 84.41015625 C-378.73071154 77.48475021 -367.65757175 75.60246124 -358.80859375 73.65234375 C-357.67698318 73.39597137 -356.54537262 73.139599 -355.37947083 72.87545776 C-352.19881044 72.15698536 -349.01654027 71.44622461 -345.83340454 70.73881531 C-343.06342849 70.12177308 -340.29488215 69.49844411 -337.52631187 68.8751297 C-327.41938714 66.59984811 -317.30727402 64.34799606 -307.19487762 62.09718323 C-302.77385592 61.11278569 -298.35312577 60.12708167 -293.93237972 59.14144707 C-267.71308924 53.29582813 -241.49113799 47.46217219 -215.265625 41.64453125 C-214.08023951 41.38155872 -212.89485401 41.1185862 -211.67354774 40.84764481 C-198.99212573 38.03504514 -186.30895255 35.23069566 -173.62109375 32.44726562 C-171.99544416 32.09062521 -171.99544416 32.09062521 -170.33695316 31.72677994 C-169.26541209 31.49171612 -168.19387102 31.2566523 -167.08985901 31.01446533 C-149.75186122 27.21097855 -132.42448476 23.37184051 -115.12538147 19.39508057 C-98.8033373 15.64325678 -82.46544113 11.96279655 -66.11823082 8.32221985 C-61.30555918 7.25026839 -56.49393438 6.17400045 -51.68432617 5.08837891 C-46.91925771 4.01292874 -42.15197178 2.94789039 -37.38295174 1.8901062 C-35.59572239 1.49187744 -33.80928953 1.09005428 -32.02374077 0.68435669 C-8.29063647 -4.70139751 -8.29063647 -4.70139751 0 0 Z " fill="#000000" transform="translate(1339.109375,1101.58984375)"/>
<path d="M0 0 C4.65317575 4.90469876 7.57730881 10.68499818 7.875 17.5 C7.47783782 24.1576924 5.17813353 29.93923897 0.5 34.75 C-2.93884382 37.31691807 -6.28310344 38.31739934 -10.41943359 39.38378906 C-11.40612062 39.63827757 -11.40612062 39.63827757 -12.41274071 39.89790726 C-19.94966738 41.81007876 -27.55140296 43.4075159 -35.1640625 44.984375 C-36.74827221 45.31572296 -38.33240701 45.64742919 -39.91647339 45.97946167 C-44.16451836 46.86879811 -48.41361166 47.75302505 -52.66293335 48.6362381 C-57.1450573 49.56877708 -61.62616789 50.50616229 -66.10742188 51.44287109 C-77.29939328 53.78109191 -88.49328928 56.1100274 -99.6875 58.4375 C-101.50142576 58.81473024 -103.31534993 59.19196812 -105.12927246 59.56921387 C-135.11734518 65.80556229 -135.11734518 65.80556229 -148.22492409 68.52082825 C-150.49511343 68.99117105 -152.76521634 69.46192926 -155.03530884 69.93273926 C-157.95780145 70.53880168 -160.88067296 71.14298933 -163.80380249 71.74597168 C-171.16149032 73.26702132 -178.50768637 74.82986864 -185.84375 76.45214844 C-188.08433066 76.94323829 -190.32508926 77.43350795 -192.56590271 77.92353439 C-194.64426581 78.38200681 -196.71956764 78.85279149 -198.79504395 79.3241272 C-211.02475333 81.99858798 -221.0897289 83.25916243 -231.9375 76.375 C-236.61410197 72.14561407 -238.33667883 65.93710081 -239.1875 59.875 C-238.11729917 52.5173693 -235.20980217 46.65385448 -229.27238464 42.03948975 C-219.7116322 36.11418573 -205.86703193 34.84425602 -194.91796875 32.546875 C-193.11371475 32.16453528 -191.30953357 31.7818518 -189.50541687 31.39886475 C-183.23450542 30.07016287 -176.96106213 28.75361963 -170.6875 27.4375 C-168.23601809 26.92263054 -165.78454121 26.40773715 -163.33306885 25.89282227 C-144.61670642 21.96318495 -125.89665749 18.05122469 -107.17604065 14.14191437 C-97.06670716 12.03082036 -86.95746826 9.91927557 -76.84863251 7.80579925 C-73.47448329 7.10040686 -70.1002572 6.3953873 -66.72582436 5.69135284 C-62.97500058 4.90867554 -59.22442665 4.12480974 -55.47387695 3.34082031 C-53.71022277 2.97339407 -53.71022277 2.97339407 -51.91093922 2.59854507 C-46.2833772 1.42145634 -40.66452257 0.21678773 -35.05673218 -1.0513916 C-33.48869858 -1.40336042 -33.48869858 -1.40336042 -31.88898754 -1.76243973 C-29.95480669 -2.19888896 -28.02216739 -2.64226017 -26.09158039 -3.09434128 C-16.30363115 -5.29919947 -8.78077788 -5.10510342 0 0 Z " fill="#000000" transform="translate(1190.6875,1240.5625)"/>
</svg>
