<?xml version="1.0" encoding="UTF-8"?>
<svg version="1.1" xmlns="http://www.w3.org/2000/svg" width="2048" height="2048">
<path d="M0 0 C21.49802198 -0.11228338 42.99589882 -0.13560199 64.49417721 -0.13726927 C73.79095245 -0.13816379 83.08772173 -0.14491505 92.38449429 -0.15160481 C114.78495245 -0.16744504 137.18540976 -0.17353706 159.58587251 -0.17835355 C170.19833324 -0.18070609 180.81079345 -0.18430976 191.42325377 -0.18804893 C227.82968954 -0.20084832 264.23612504 -0.21158343 300.64256302 -0.21505153 C302.9143565 -0.21527315 305.18614999 -0.21549494 307.45794347 -0.21571688 C309.73464923 -0.21593751 312.01135499 -0.21615799 314.28806075 -0.21637833 C318.85428249 -0.21682084 323.42050422 -0.21726797 327.98672596 -0.21771801 C329.11882788 -0.2178274 330.2509298 -0.21793679 331.41733784 -0.21804949 C368.26440673 -0.22169375 405.11145611 -0.23768356 441.95851752 -0.26090837 C481.03058911 -0.28549039 520.10264953 -0.29922301 559.17472908 -0.30041945 C563.45865523 -0.30059089 567.74258138 -0.30080631 572.02650753 -0.30105388 C573.0811255 -0.30110965 574.13574346 -0.30116542 575.22231955 -0.30122288 C592.1820264 -0.30237279 609.14171306 -0.31338662 626.10141309 -0.32794094 C643.10946769 -0.34228598 660.11749637 -0.3455536 677.12555536 -0.33750096 C687.22623234 -0.33304014 697.32682571 -0.33692425 707.42749173 -0.35273947 C714.17106127 -0.36247276 720.91457209 -0.36132715 727.65814106 -0.35130324 C731.50060064 -0.34590056 735.34289934 -0.34523557 739.18534573 -0.35781196 C743.32459806 -0.37124729 747.46347346 -0.36146253 751.60272995 -0.34942043 C752.79390815 -0.35701562 753.98508635 -0.36461082 755.21236086 -0.37243617 C766.12749348 -0.30363092 776.04557118 2.04444565 784.68374744 9.02251637 C796.12518753 21.87978684 797.03490789 36.46748698 796.83288684 53.05669606 C796.82382041 54.43488551 796.81569581 55.81308141 796.80841354 57.19128144 C796.79058738 60.18339644 796.76616509 63.17535926 796.73663393 66.16738141 C796.68796758 71.10935496 796.65454104 76.05137359 796.62250248 80.99347889 C796.57348461 88.32967912 796.51758577 95.66580029 796.45740238 103.001917 C796.30592717 121.55254568 796.19113446 140.10343386 796.0732421 158.65430081 C796.04454395 163.16672329 796.01535438 167.67914221 795.98576775 172.19155896 C795.73506986 210.51130252 795.57121475 248.83107267 795.45425525 287.15142262 C795.45215701 287.83855264 795.45005877 288.52568266 795.44789695 289.2336348 C795.40703447 302.64066728 795.36753658 316.04770374 795.32913962 329.4547435 C795.27336929 348.92013646 795.21385871 368.38551424 795.15115021 387.85088609 C795.14178504 390.75902888 795.13244726 393.66717175 795.12310814 396.57531462 C795.10200806 403.14497716 795.08086467 409.71463955 795.05970064 416.28430188 C795.05262707 418.48032056 795.04555369 420.67633925 795.03848051 422.87235793 C795.03376289 424.3369652 795.02904462 425.80157245 795.02432568 427.26617971 C794.98880902 438.29107751 794.95352799 449.31597603 794.91861072 460.34087574 C794.91629486 461.07139204 794.91397901 461.80190833 794.91159297 462.55456148 C794.83517077 486.68357385 794.76757726 510.81260313 794.70354333 534.94165124 C794.63652371 560.1750864 794.55972492 585.40847439 794.4709282 610.64184272 C794.45845073 614.18949977 794.44609043 617.73715723 794.43380466 621.28481495 C794.43017836 622.33072805 794.43017836 622.33072805 794.42647881 623.39777071 C794.38815627 634.53662324 794.36018298 645.67547794 794.33636765 656.81436993 C794.31247665 667.89559205 794.27773432 678.97674673 794.23239879 690.05790424 C794.20825816 696.03877427 794.18898679 702.01955741 794.18265644 708.00047505 C794.17677399 713.46597241 794.1572595 718.93124343 794.12679245 724.39665747 C794.11820174 726.37242862 794.11465219 728.3482294 794.11662786 730.32401824 C794.1185828 733.00581256 794.10223664 735.68690137 794.08133236 738.36860096 C794.08629055 739.13566593 794.09124875 739.90273089 794.0963572 740.69304025 C794.01696275 746.82170864 792.74098807 752.22427912 789.03530994 757.26470387 C788.46554432 757.80353199 787.89577869 758.34236012 787.30874744 758.89751637 C786.74413807 759.45181324 786.17952869 760.00611012 785.59780994 760.57720387 C779.89623613 764.88247389 773.53556908 764.73439394 766.68374744 764.02251637 C760.74510614 762.30907232 757.11105587 759.06267583 753.68374744 754.02251637 C751.36519616 748.6877448 751.40981764 743.7708383 751.44975391 738.06306374 C751.44877061 737.06329442 751.44778731 736.0635251 751.44677421 735.03345974 C751.4459601 731.68531421 751.45951269 728.33738343 751.47305408 724.98926747 C751.47551746 722.59140348 751.47712059 720.19353848 751.47792736 717.79567337 C751.48225246 711.94345284 751.49599085 706.09129827 751.51395456 700.23910787 C751.53477215 693.30870126 751.54426407 686.37829107 751.55361743 679.44786119 C751.5758408 663.43713129 751.61801901 647.42647814 751.66515417 631.41580494 C751.68319489 625.27521439 751.69972463 619.13462059 751.71602795 612.99402517 C751.80681832 578.9035052 751.93260959 544.81314672 752.07083222 510.72279249 C752.11106069 500.78974384 752.14997921 490.8566906 752.18811145 480.92363369 C752.19088415 480.20145327 752.19365684 479.47927285 752.19651356 478.73520817 C752.21060999 475.06195593 752.22468627 471.38870362 752.23875383 467.71545128 C752.33675957 442.13135699 752.43678619 416.54727103 752.53823963 390.9631902 C752.63599668 366.30889623 752.73314641 341.65460003 752.82925525 317.00029957 C752.83373742 315.85068523 752.83373742 315.85068523 752.83831014 314.67784635 C752.9067234 297.12969108 752.97490596 279.58153493 753.04283252 262.03337777 C753.04569501 261.29396847 753.0485575 260.55455918 753.05150674 259.79274355 C753.09014185 249.81292286 753.09014185 249.81292286 753.12874106 239.83310203 C753.19496123 222.70512577 753.26183211 205.57715236 753.32993832 188.4491835 C753.37243593 177.75921951 753.41443934 167.06925366 753.45608702 156.37928631 C753.48000197 150.24729031 753.50415803 144.11529552 753.52899662 137.98330319 C753.53594039 136.26113174 753.53594039 136.26113174 753.54302445 134.50416895 C753.55215659 132.23968168 753.56134016 129.97519461 753.57057753 127.71070776 C753.59195445 122.36675621 753.61098685 117.02281706 753.62440601 111.67883921 C753.62958994 109.66204732 753.63481291 107.64525554 753.64007679 105.62846386 C753.64257316 104.65458103 753.64506954 103.68069819 753.64764157 102.67730375 C753.66535887 96.940224 753.70730142 91.20395306 753.77090117 85.46720171 C753.80880257 81.91470429 753.83557896 78.36217071 753.86065772 74.8095623 C753.87510906 73.18447656 753.89489667 71.55942745 753.92062405 69.93448111 C754.21190359 58.61411305 754.21190359 58.61411305 750.68374744 48.02251637 C746.44373639 43.8885056 743.13336987 42.89814129 737.32949719 42.8937152 C735.64889252 42.88880691 735.64889252 42.88880691 733.93433625 42.88379946 C732.0764593 42.8860249 732.0764593 42.8860249 730.1810495 42.88829529 C728.20822147 42.88476695 728.20822147 42.88476695 726.19553834 42.88116732 C722.52083777 42.87474799 718.846159 42.87460723 715.17145388 42.87544473 C711.18271428 42.87527561 707.19398258 42.86937379 703.2052469 42.86420387 C695.28333442 42.85486299 687.36142754 42.85095333 679.43951025 42.8486849 C669.95522063 42.84572675 660.47093847 42.83703169 650.98665275 42.82827062 C628.06160174 42.80741062 605.13654943 42.79695446 582.21149114 42.78814102 C571.37191075 42.78393722 560.53233091 42.77871491 549.69275099 42.77345649 C512.60597365 42.75556604 475.51919616 42.74056837 438.43241516 42.7331363 C436.10343857 42.73266154 433.77446199 42.73218565 431.4454854 42.73170863 C430.29049583 42.73147226 429.13550626 42.73123588 427.94551701 42.73099234 C422.09353067 42.72979111 416.24154433 42.72857567 410.38955799 42.72735035 C409.22820359 42.7271102 408.06684918 42.72687005 406.87030222 42.72662263 C369.19786725 42.71872585 331.52546371 42.69528634 293.85304247 42.66279441 C254.04666269 42.62852448 214.24030131 42.60878785 174.43390653 42.60549206 C170.06720323 42.6050745 165.70049994 42.60459493 161.33379665 42.60406888 C159.7209261 42.60388409 159.7209261 42.60388409 158.0754723 42.60369557 C140.74564594 42.60136013 123.415856 42.5856812 106.08604263 42.56522703 C88.67938982 42.5450075 71.27278093 42.53947335 53.86611854 42.54899766 C43.51601306 42.55422756 33.16605341 42.54826517 22.81596881 42.52646299 C15.90933104 42.51300974 9.00279426 42.51398314 2.0961556 42.52686495 C-1.8437097 42.53379823 -5.78329509 42.53430718 -9.72313602 42.51730486 C-13.96098373 42.49916478 -18.19817441 42.5117472 -22.43603119 42.52753174 C-23.66759232 42.51730954 -24.89915345 42.50708733 -26.16803461 42.49655536 C-34.48676984 42.54869522 -34.48676984 42.54869522 -41.31625256 47.02251637 C-44.7584398 51.43648205 -45.81699003 54.26969047 -45.82521191 59.84992981 C-45.83163984 60.51631044 -45.83806777 61.18269106 -45.84469048 61.86926504 C-45.8613776 64.10484512 -45.8496204 66.33935974 -45.83802781 68.57495892 C-45.84421188 70.19969484 -45.8521448 71.82442489 -45.86166942 73.44914466 C-45.88283691 77.93243964 -45.87901987 82.41542388 -45.87126334 86.89874942 C-45.86720075 91.76920305 -45.88620481 96.63957455 -45.90230158 101.5099957 C-45.9273086 110.05225442 -45.93737278 118.59443076 -45.93774113 127.13672459 C-45.93832316 139.83927305 -45.96163333 152.54170841 -45.98944444 165.24422276 C-46.03831452 187.92834243 -46.06409729 210.61244492 -46.07995501 233.29660913 C-46.09384682 253.14881154 -46.11471334 273.00099046 -46.14263615 292.85317814 C-46.14635089 295.51324931 -46.15006505 298.17332048 -46.15377862 300.83339164 C-46.1593833 304.84158607 -46.16500009 308.84978048 -46.17063646 312.85797487 C-46.22296878 350.13686124 -46.2673433 387.41575089 -46.29499039 424.69466412 C-46.29551303 425.39750445 -46.29603567 426.10034477 -46.29657415 426.82448329 C-46.30239426 434.66205928 -46.30809011 442.49963536 -46.31373588 450.33721147 C-46.31424566 451.04484133 -46.31475543 451.75247118 -46.31528066 452.48154436 C-46.31734145 455.34325978 -46.31940209 458.20497521 -46.32145503 461.06669064 C-46.35394772 506.33277451 -46.40969134 551.59877055 -46.48593029 596.86480153 C-46.50512685 608.27069457 -46.52426125 619.67658771 -46.54300675 631.0824815 C-46.54473921 632.13590793 -46.54473921 632.13590793 -46.54650666 633.21061571 C-46.58201422 654.85131518 -46.61134027 676.49201587 -46.63410744 698.13273251 C-46.63482257 698.81203848 -46.6355377 699.49134446 -46.63627451 700.19123546 C-46.65190577 715.10271979 -46.66597965 730.01420527 -46.6786366 744.92569241 C-46.68373922 750.92520271 -46.68896864 756.92471289 -46.69421086 762.92422307 C-46.69534512 764.23679764 -46.69647939 765.54937221 -46.69764802 766.90172176 C-46.71511204 786.74248559 -46.74537511 806.58320381 -46.78196797 826.42394078 C-46.82352841 848.98026251 -46.84751919 871.53652451 -46.84798203 894.09288619 C-46.84875529 906.72438417 -46.86341673 919.35568784 -46.89785502 931.98713988 C-46.91945567 940.4169199 -46.92295646 948.84658008 -46.91152784 957.27637975 C-46.90552103 962.08453661 -46.90751899 966.8923308 -46.93142877 971.70043992 C-46.95300739 976.07264312 -46.95163361 980.44420903 -46.93177835 984.81641492 C-46.92867896 986.39008442 -46.93400691 987.96379829 -46.94869851 989.53740226 C-47.1283762 1001.23057434 -47.1283762 1001.23057434 -41.31625256 1011.02251637 C-36.18606106 1014.86230557 -30.69956197 1014.44809612 -24.54646191 1014.41451466 C-23.45851316 1014.42045592 -22.37056442 1014.42639718 -21.24964753 1014.43251848 C-17.59783607 1014.44884371 -13.94636427 1014.44385534 -10.29452404 1014.43902028 C-7.67249556 1014.44640286 -5.05047052 1014.45510865 -2.42845044 1014.46503651 C3.24176337 1014.48446142 8.91191061 1014.49300182 14.58215633 1014.4943372 C22.89896865 1014.4963975 31.21567191 1014.51602583 39.53244736 1014.53973512 C53.18386189 1014.5782505 66.83526901 1014.60395582 80.48672596 1014.62114918 C99.01648125 1014.64454063 117.54619488 1014.67962321 136.07591957 1014.72043389 C138.4440837 1014.72564262 140.81224794 1014.73079944 143.1804122 1014.7359463 C176.17924338 1014.80786849 209.17801927 1014.8941009 242.17675338 1015.00183107 C247.20228253 1015.01809876 252.22781471 1015.03282932 257.25335041 1015.04691517 C271.86188846 1015.08839428 286.47021832 1015.14199508 301.07855448 1015.23296356 C307.02649594 1015.26992416 312.97429161 1015.30093526 318.92233577 1015.31483281 C324.34788614 1015.32780362 329.77300183 1015.35919797 335.19836655 1015.40559256 C337.15287928 1015.41918485 339.10745167 1015.42616149 341.06201163 1015.42581713 C361.32480162 1015.43039339 361.32480162 1015.43039339 369.05874744 1022.05767262 C369.59499744 1022.72669606 370.13124744 1023.39571949 370.68374744 1024.08501637 C371.24062244 1024.75661793 371.79749744 1025.42821949 372.37124744 1026.12017262 C375.65220004 1030.87560093 375.19913593 1036.48966936 374.68374744 1042.02251637 C373.0605295 1048.44958201 369.29785331 1051.49405625 363.80484119 1054.89361012 C360.3489862 1056.73291416 357.65279411 1057.14764444 353.8021957 1057.14835751 C352.7891067 1057.15096526 351.77601769 1057.15357301 350.73222902 1057.15625978 C349.61534051 1057.15402905 348.498452 1057.15179833 347.34771839 1057.14950001 C345.57029083 1057.15184 345.57029083 1057.15184 343.75695565 1057.15422726 C340.45842259 1057.15753492 337.15994616 1057.15633129 333.86141649 1057.15324104 C330.30121999 1057.1509829 326.74102852 1057.15447027 323.18083301 1057.15722096 C316.17495823 1057.16168657 309.16909412 1057.16069484 302.1632189 1057.15780832 C296.41282184 1057.15553979 290.66242775 1057.15524809 284.91203037 1057.15633214 C283.67832775 1057.15656198 283.67832775 1057.15656198 282.41970184 1057.15679648 C280.7470063 1057.15711632 279.07431076 1057.15744053 277.40161522 1057.15776907 C261.64914785 1057.16063057 245.89668625 1057.15733543 230.14421983 1057.1519687 C216.86377286 1057.1475812 203.58333484 1057.14825642 190.30288807 1057.15288746 C55.7156929 1057.19845411 55.7156929 1057.19845411 -4.63161787 1056.60860407 C-7.809319 1056.57765189 -10.98703017 1056.54796042 -14.16474423 1056.51836979 C-19.01708422 1056.47234385 -23.8693373 1056.42096432 -28.72156939 1056.36471617 C-30.44162458 1056.34510627 -32.16169375 1056.32667353 -33.88177618 1056.30961955 C-69.97821027 1055.94195646 -69.97821027 1055.94195646 -79.53890881 1048.22954762 C-86.79794397 1040.50815354 -89.4444685 1031.51014011 -89.43634036 1021.10934711 C-89.43717248 1020.42150365 -89.4380046 1019.7336602 -89.43886194 1019.024973 C-89.44042874 1016.7105168 -89.43481987 1014.39613352 -89.42926964 1012.08168423 C-89.42890818 1010.402255 -89.42898642 1008.72282562 -89.42946559 1007.04339641 C-89.42949828 1002.4035954 -89.42323261 997.76382057 -89.41598227 993.124026 C-89.40920221 988.08550248 -89.40821269 983.04697736 -89.40649238 978.00845003 C-89.40265941 969.16928103 -89.39505158 960.33012141 -89.38499913 951.49095738 C-89.37005437 938.34655253 -89.36081198 925.20214802 -89.35266999 912.05773742 C-89.3370548 887.21663088 -89.31452445 862.37553306 -89.28976267 837.53443439 C-89.28703211 834.79338735 -89.28430487 832.0523403 -89.28158054 829.31129324 C-89.28090396 828.63110182 -89.28022739 827.95091039 -89.27953031 827.2501071 C-89.2645741 812.1815533 -89.25141603 797.11299809 -89.23858017 782.04444236 C-89.23564805 778.60451733 -89.23270088 775.16459232 -89.22975392 771.7246673 C-89.22916873 771.04158956 -89.22858355 770.35851182 -89.22798064 769.65473475 C-89.22620381 767.58105685 -89.22442631 765.50737894 -89.22264877 763.43370104 C-89.22176796 762.40554389 -89.22176796 762.40554389 -89.22086936 761.3566159 C-89.18720019 722.06975318 -89.15132746 682.78289298 -89.11085686 643.49603665 C-89.10934325 642.02540419 -89.10782968 640.55477172 -89.10631614 639.08413926 C-89.09947996 632.44428373 -89.09262874 625.80442822 -89.08577314 619.16457272 C-89.08271605 616.20366872 -89.07965992 613.24276473 -89.07660387 610.28186074 C-89.07507391 608.79987314 -89.07354334 607.31788555 -89.07201214 605.83589796 C-89.02361207 558.98713848 -88.98317173 512.1383784 -88.9493092 465.28960621 C-88.94077784 453.48921464 -88.9322153 441.68882309 -88.92347893 429.88843167 C-88.92294105 429.16182677 -88.92240317 428.43522188 -88.92184899 427.68659866 C-88.90523088 405.28822525 -88.88617976 382.88985493 -88.86464295 360.49148571 C-88.86396697 359.78814562 -88.86329098 359.08480553 -88.86259451 358.36015211 C-88.84773051 342.91918188 -88.83227819 327.47821228 -88.81628366 312.03724318 C-88.81056559 306.51190715 -88.80489147 300.98657106 -88.79923887 295.46123496 C-88.79783224 294.08667252 -88.79642333 292.71211008 -88.79501213 291.33754765 C-88.77255626 269.44269312 -88.75592147 247.54783904 -88.74219806 225.65297745 C-88.7279421 202.98077393 -88.70641673 180.30858545 -88.67659872 157.63639648 C-88.65961863 144.5665383 -88.64813719 131.49670244 -88.64454893 118.42683356 C-88.64160343 109.69585347 -88.63144168 100.96490098 -88.6154208 92.23393514 C-88.60649627 87.25958187 -88.60068483 82.28527953 -88.60365253 77.31091793 C-88.60629163 72.77976171 -88.59968756 68.24871377 -88.58591324 63.71757857 C-88.58256058 62.09416581 -88.58248409 60.47074186 -88.5862133 58.84732992 C-88.6215262 41.81547977 -88.41708283 22.56038721 -75.82797131 9.47564137 C-68.35991528 2.53979163 -60.68400807 0.42636356 -50.67225441 0.4188062 C-49.63187859 0.4026671 -48.59150276 0.386528 -47.5196004 0.36989984 C-44.03308712 0.32141212 -40.5470455 0.30167973 -37.06025586 0.28258717 C-34.52648241 0.25501746 -31.99272278 0.22615335 -29.45897749 0.19610727 C-21.80259197 0.11368423 -14.14631512 0.06786368 -6.48958279 0.032694 C-4.3263839 0.02256381 -2.16319239 0.0114288 0 0 Z " fill="#000000" transform="translate(588.3162525594234,398.97748363018036)"/>
<path d="M0 0 C34.94025912 28.81305426 40.2609899 89.64341662 44.36474609 131.76586914 C46.07850583 149.88620972 47.07561348 168.0020602 47.52734375 186.1953125 C47.54776167 186.98853031 47.56817959 187.78174812 47.58921623 188.59900284 C48.11825983 209.3515848 48.32608368 230.10845061 48.53222656 250.86627197 C48.58371836 255.98378812 48.63871706 261.10126669 48.69335938 266.21875 C48.79887 276.1458008 48.90071624 286.0728851 49 296 C49.61361389 295.58341629 50.22722778 295.16683258 50.85943604 294.73762512 C51.66669128 294.19361557 52.47394653 293.64960602 53.30566406 293.08911133 C54.10490295 292.54877762 54.90414185 292.00844391 55.7276001 291.45173645 C58.31422731 289.79925398 60.84218165 288.66394196 63.75 287.6875 C64.63171875 287.38199219 65.5134375 287.07648438 66.421875 286.76171875 C78.91320726 283.07109786 92.02920722 284.12835207 104 289 C104.87011719 289.350625 105.74023438 289.70125 106.63671875 290.0625 C122.26666847 297.12910207 133.65145613 310.82495819 141 326 C141.928125 325.154375 142.85625 324.30875 143.8125 323.4375 C161.46223265 308.53015609 179.53142874 306.20690555 202 308 C219.58124471 310.23563976 233.34399035 321.24058509 244.625 334.17578125 C246.02733568 336.03626638 247.0295985 337.88657751 248 340 C251.10473291 338.58685924 253.50805516 336.86506849 256.125 334.6875 C269.18777549 324.43758971 283.75959809 321.72218204 300 323 C316.70368249 325.07859726 332.08600519 334.08205392 342.63671875 347.140625 C350.22965597 357.19679723 353.94129675 368.14579487 356.2265625 380.41796875 C356.85181938 383.31372916 357.60409662 386.02402866 358.48828125 388.84375 C362.80371187 402.97771417 363.28228834 418.1384435 364.07421875 432.8125 C364.1174955 433.60595636 364.16077225 434.39941273 364.20536041 435.21691322 C365.13734252 452.70297113 365.3089046 470.16849969 365.26074219 487.67602539 C365.2493208 491.85992276 365.25616684 496.04356625 365.26761913 500.22745514 C365.33304315 528.43821311 364.41290178 556.57697199 361.1875 584.625 C361.10351959 585.37584869 361.01953918 586.12669739 360.93301392 586.90029907 C356.10195948 629.94949266 347.57241042 672.5308873 335 714 C334.63648438 715.21429687 334.27296875 716.42859375 333.8984375 717.6796875 C327.10006879 738.46606663 315.03990974 757.26180874 300 773 C299.34 773.73476562 298.68 774.46953125 298 775.2265625 C255.28867845 821.01180492 176.10622356 825.80250535 117.49902344 827.859375 C53.6939283 829.9284719 -43.51894583 830.88352524 -93.3671875 784.94140625 C-112.23481958 767.01472669 -122.19615655 745.7213951 -131.51904297 721.75634766 C-133.11746486 717.67818917 -134.77673828 713.62569943 -136.44140625 709.57421875 C-214.77506724 518.78714968 -214.77506724 518.78714968 -186.08984375 432.81738281 C-177.63892904 413.52844437 -164.49690037 396.93567179 -150.3359375 381.5546875 C-148.34799121 379.38057901 -146.41466662 377.17577224 -144.5 374.9375 C-133.43055194 362.22716906 -120.25203388 349.43962963 -105 342 C-105.08564209 340.76773682 -105.17128418 339.53547363 -105.25952148 338.26586914 C-105.58559836 333.55989838 -105.90682448 328.85360555 -106.22680664 324.1472168 C-106.36421764 322.13541153 -106.5028323 320.123688 -106.64282227 318.11206055 C-108.71908561 288.24235143 -109.20337773 258.49344399 -109.1875 228.5625 C-109.18738041 227.5660849 -109.18726082 226.5696698 -109.1871376 225.5430603 C-109.1599553 46.59633103 -109.1599553 46.59633103 -73.203125 9.171875 C-72.47609375 8.45515625 -71.7490625 7.7384375 -71 7 C-70.37609375 6.36578125 -69.7521875 5.7315625 -69.109375 5.078125 C-49.95973021 -13.10599148 -21.34412366 -15.29951412 0 0 Z M-51.90625 27.609375 C-63.37321732 39.3890778 -68.53897637 57.83897079 -71.5 73.5 C-71.70794189 74.59892578 -71.91588379 75.69785156 -72.13012695 76.83007812 C-76.95665199 103.58881946 -78.8837066 130.86271979 -80 158 C-80.06355179 159.50483444 -80.06355179 159.50483444 -80.12838745 161.04006958 C-80.95302465 181.10452678 -81.18790087 201.14687339 -81.18530273 221.22631836 C-81.18522207 224.51055479 -81.19209452 227.79464992 -81.20581055 231.07885742 C-81.37447031 272.35115819 -78.87388206 313.34638719 -75.67602539 354.48095703 C-75.35227633 358.66351651 -75.03433716 362.84650936 -74.71656704 367.02952671 C-74.33249504 372.08363363 -73.94590008 377.13754627 -73.55859375 382.19140625 C-73.48677824 383.12939119 -73.41496273 384.06737614 -73.34097099 385.03378487 C-72.37777903 397.60139392 -72.37777903 397.60139392 -71.1811676 410.14842224 C-70.78690471 414.17788658 -70.77474069 418.20489727 -70.75 422.25 C-70.729375 423.10851563 -70.70875 423.96703125 -70.6875 424.8515625 C-70.65581884 429.99975179 -71.11087101 433.55198846 -74 438 C-76.71083547 440.1979747 -78.48957172 440.92397877 -81.9375 441.4375 C-85.83287214 440.88101827 -87.91544348 439.39909952 -91 437 C-91.51006592 436.60417725 -92.02013184 436.20835449 -92.5456543 435.80053711 C-99.63495285 427.02370702 -98.98194822 409.73320088 -99.6875 398.9375 C-99.86111535 396.477586 -100.03870752 394.01799531 -100.2179718 391.55848694 C-100.32678344 390.04725572 -100.43172129 388.53573815 -100.53190613 387.02391052 C-100.83181352 382.63706315 -101.32890129 378.34138047 -102 374 C-108.12328347 379.07477603 -113.75155219 384.56806894 -119.375 390.1875 C-120.26960938 391.06986328 -121.16421875 391.95222656 -122.0859375 392.86132812 C-128.16334478 398.92548524 -133.6736538 405.27095985 -139 412 C-139.90397601 413.1075648 -140.8087334 414.21449314 -141.71484375 415.3203125 C-157.50778123 435.24883466 -167.75226465 457.28908981 -169 483 C-169.07927734 484.59328125 -169.07927734 484.59328125 -169.16015625 486.21875 C-170.98950486 561.93787491 -133.85954227 643.26236477 -104.39892578 711.70654297 C-103.15532304 714.63432673 -101.93946831 717.5719304 -100.73823547 720.51731873 C-99.96542178 722.40874154 -99.18518771 724.29693356 -98.40258789 726.18432617 C-97.42119031 728.55539654 -96.45186673 730.9315205 -95.49780273 733.3137207 C-86.80250968 754.11938123 -70.5491642 769.47459762 -49.9375 778 C-10.47485817 793.54328068 33.73031216 797.8519562 75.8125 799.625 C76.75279053 799.66512207 77.69308105 799.70524414 78.66186523 799.74658203 C94.1616896 800.31599036 109.64072705 800.07808999 125.125 799.25 C125.93438019 799.20709839 126.74376038 799.16419678 127.57766724 799.11999512 C167.94054218 796.92039412 210.93854517 791.96891212 248 775 C248.60038086 774.72639648 249.20076172 774.45279297 249.81933594 774.17089844 C272.9211888 763.41428768 287.69146076 745.78975222 300 724 C300.40105957 723.31744141 300.80211914 722.63488281 301.21533203 721.93164062 C310.34687701 706.15932039 313.61470139 688.10648656 317.4564209 670.49182129 C317.99180897 668.0375485 318.53313388 665.5846423 319.07519531 663.13183594 C326.48326452 629.43925272 332.19036464 595.40044366 335 561 C335.10296387 559.82598633 335.20592773 558.65197266 335.31201172 557.44238281 C338.98176176 514.06628515 338.46882098 469.30922297 335.24707031 425.92333984 C334.98983435 421.83857517 334.86698179 417.76657158 334.7734375 413.67578125 C334.23818113 394.08568779 330.85476738 375.00345311 316.13671875 360.7734375 C308.20785999 354.19262968 299.35568611 350.39022841 288.8125 351.0625 C280.55582566 352.33275759 274.74194483 355.30899618 269.49609375 361.86328125 C267.2311555 365.09806251 265.49750362 368.35027025 264 372 C263.71253906 372.67546875 263.42507813 373.3509375 263.12890625 374.046875 C261.3837131 378.62278814 260.78344833 382.7966269 260.5 387.6875 C260.10083977 394.14937692 259.29782849 397.96936087 254.3125 402.375 C249.09846728 404.93282737 245.23074269 404.68638236 239.75 403 C235.33098982 399.78617442 233.52933072 395.41715063 232.38623047 390.19726562 C231.89150105 387.05332363 231.46700917 383.90677631 231.0625 380.75 C229.76854013 371.81508432 228.47823868 363.94526218 224 356 C223.57074219 355.18917969 223.14148437 354.37835937 222.69921875 353.54296875 C217.83346653 345.27804316 209.92760764 340.15092034 201 337 C190.5155318 334.41528735 178.38874288 334.91461844 168.859375 340.18359375 C161.92092763 344.85777681 156.65425555 352.08123035 154 360 C153.74174112 362.47977152 153.57562155 364.96988098 153.47265625 367.4609375 C153.40190765 368.91667713 153.33093718 370.37240599 153.25976562 371.828125 C153.15901227 374.10108157 153.0625356 376.37411642 152.97094727 378.64746094 C152.87869172 380.85680157 152.77017372 383.0649201 152.66015625 385.2734375 C152.60480713 386.58747559 152.54945801 387.90151367 152.49243164 389.25537109 C151.81397826 394.41457683 150.34663784 398.35878513 147 402.4375 C142.39628216 404.83526971 138.08119196 404.73759238 133 404 C129.4565191 402.32150905 127.63960722 401.26147049 125.86474609 397.76098633 C124.86067879 394.55517123 124.7443004 391.87017345 124.7265625 388.51171875 C124.70875732 387.25520508 124.69095215 385.99869141 124.67260742 384.70410156 C124.66201797 383.71899597 124.66201797 383.71899597 124.6512146 382.71398926 C124.49980034 371.00908542 123.88348725 360.13544733 120 349 C119.71253906 348.0925 119.42507813 347.185 119.12890625 346.25 C114.70661159 333.67102853 106.13809974 322.11219515 94.18359375 316.00390625 C86.92960871 312.66888987 80.46284332 312.25228961 72.86328125 314.68359375 C61.76082006 319.59136147 54.56396598 330.89137941 49.8359375 341.6484375 C47.75160817 350.00523455 47.90450874 358.79637973 47.5703125 367.3671875 C47.53371521 368.2968634 47.49711792 369.22653931 47.45941162 370.18438721 C47.23187443 376.00927865 47.23187443 376.00927865 47.02587891 381.83496094 C46.92826572 384.70050324 46.8132641 387.56491964 46.6953125 390.4296875 C46.67018585 391.30164764 46.6450592 392.17360779 46.61917114 393.07199097 C46.39656085 398.0715621 45.75806663 401.6701587 43 406 C39.08379313 409.46083398 36.05937375 410.60714023 30.95703125 410.32421875 C26.861619 409.64573728 23.95493006 408.05371593 21.1875 405 C18.80900283 400.99411003 18.94433929 397.84998128 19.11642456 393.29292297 C19.1647107 391.89210585 19.21292574 390.49128627 19.26107979 389.09046459 C19.28860714 388.34782907 19.3161345 387.60519355 19.34449601 386.84005392 C19.82124184 373.78603173 20.10725009 360.73909557 20.12939453 347.67651367 C20.13067911 346.9567251 20.13196369 346.23693652 20.13328719 345.49533617 C20.13960238 341.00001231 20.13817254 336.50471491 20.1343255 332.00938964 C20.13171018 327.96209521 20.13416406 323.9148025 20.13571167 319.86750793 C20.13750824 313.08020612 20.1351951 306.29291535 20.13037109 299.50561523 C20.1249401 291.77748546 20.12669307 284.04938214 20.1321975 276.321253 C20.13680975 269.56246987 20.1373403 262.80369446 20.13475883 256.04491025 C20.13323879 252.06251522 20.13287847 248.08013239 20.13629532 244.09773827 C20.14894599 226.97548135 19.99188869 209.86812056 19.54248047 192.7512207 C19.52226782 191.96924769 19.50205517 191.18727467 19.48123002 190.38160551 C19.10694712 101.48232557 19.10694712 101.48232557 -15.8984375 24.078125 C-27.82678408 14.17712586 -40.95300141 18.36196021 -51.90625 27.609375 Z " fill="#000000" transform="translate(1192,879)"/>
<path d="M0 0 C6.07159066 -0.00190018 12.14317526 -0.00946811 18.21476221 -0.01613522 C32.05568278 -0.03019264 45.8966022 -0.03620847 59.73752826 -0.04082716 C66.59851624 -0.04318672 73.45950342 -0.04679074 80.32049077 -0.05052254 C103.88155086 -0.06330832 127.44261055 -0.07404898 151.00367403 -0.07752514 C152.47041088 -0.07774675 153.93714773 -0.07796854 155.40388458 -0.07819049 C156.87363243 -0.07841111 158.34338027 -0.07863159 159.81312811 -0.07885194 C162.76053866 -0.07929443 165.7079492 -0.07974157 168.65535975 -0.08019161 C169.38609586 -0.080301 170.11683198 -0.08041039 170.86971161 -0.0805231 C194.68205774 -0.08417174 218.49437377 -0.10018473 242.30670835 -0.12338198 C267.59127508 -0.14796807 292.87582457 -0.16169659 318.16040361 -0.16289306 C320.93231114 -0.16306448 323.70421867 -0.1632799 326.47612619 -0.16352749 C327.49961772 -0.16361114 327.49961772 -0.16361114 328.54378585 -0.16369648 C339.50592382 -0.16484535 350.46803051 -0.17584909 361.43015792 -0.19041454 C372.41791905 -0.20476362 383.40564534 -0.20777152 394.3934141 -0.19997457 C400.34097471 -0.19606142 406.28842992 -0.19703162 412.23597765 -0.21103191 C417.67717364 -0.22372445 423.11818447 -0.22261453 428.55938004 -0.2104412 C430.5284069 -0.20847665 432.49744668 -0.21159742 434.46645536 -0.22028556 C437.14094719 -0.23134171 439.81478105 -0.2239156 442.48925447 -0.21189404 C443.25451437 -0.21948923 444.01977426 -0.22708442 444.80822384 -0.23490977 C452.98349946 -0.15549822 459.34240436 2.37540769 465.12703943 8.16004276 C468.77855967 14.32985282 470.14705646 19.97835629 468.73641443 27.14441776 C466.93821255 33.09231629 463.20677896 36.71772843 458.12703943 40.16004276 C453.46052815 42.59213942 449.11129484 42.44065201 443.97862101 42.41451836 C443.05031937 42.41772483 442.12201774 42.42093131 441.16558576 42.42423496 C438.03770501 42.43257292 434.91001384 42.42659736 431.78212976 42.42073917 C429.52383683 42.42375813 427.26554493 42.42764632 425.00725484 42.43233174 C418.78784716 42.4426536 412.56849685 42.44041928 406.34908438 42.43615115 C400.33472734 42.43394393 394.32038601 42.441087 388.30603424 42.4479114 C374.48181109 42.46316583 360.65760624 42.46485494 346.83337644 42.46238837 C336.15803543 42.46055674 325.48270043 42.4623126 314.80736017 42.46661282 C313.27440865 42.46721521 311.74145713 42.46781641 310.20850562 42.46841642 C307.89856227 42.46932366 305.58861892 42.47023233 303.27867558 42.47114877 C281.79635323 42.47958071 260.31403315 42.48391239 238.83170938 42.47974205 C237.61648382 42.47950749 237.61648382 42.47950749 236.37670824 42.47926818 C232.27042503 42.47846238 228.16414182 42.47761661 224.05785862 42.47675488 C223.24232015 42.47658379 222.42678169 42.47641271 221.58652994 42.47623643 C219.93731164 42.47588978 218.28809334 42.47554125 216.63887503 42.47519085 C190.97996832 42.46983425 165.32109598 42.47776133 139.66219568 42.4962244 C110.84164053 42.51693812 82.02110666 42.52766822 53.20054364 42.52364892 C50.12768968 42.52325357 47.05483572 42.52289202 43.98198175 42.52255154 C43.2253546 42.5224608 42.46872745 42.52237007 41.6891722 42.52227659 C30.2638223 42.5211103 18.83849389 42.52776143 7.41314936 42.53836346 C-5.58126923 42.5504091 -18.57564046 42.55198185 -31.57005975 42.53957329 C-38.20195645 42.53352392 -44.83378061 42.53262202 -51.46567678 42.54457569 C-57.53539486 42.55538902 -63.60494253 42.55238537 -69.67465249 42.53831401 C-71.87182215 42.53565449 -74.06900498 42.53807273 -76.26616177 42.54604987 C-79.25137318 42.55613682 -82.23599006 42.54774989 -85.22117758 42.53477287 C-86.07528652 42.54208222 -86.92939546 42.54939156 -87.80938649 42.55692241 C-94.41376942 42.49736625 -100.75800008 41.40135824 -106.21280432 37.47644901 C-106.74003088 36.89765995 -107.26725744 36.31887089 -107.81046057 35.72254276 C-108.355734 35.14633183 -108.90100744 34.57012089 -109.46280432 33.97644901 C-113.92743073 28.22561443 -113.56119327 22.20582503 -112.87296057 15.16004276 C-111.00917003 9.11331324 -106.24351552 4.95195354 -100.78282297 2.04884887 C-96.60647229 0.77319886 -92.5984747 0.80469951 -88.25266218 0.75164509 C-86.81004188 0.7231916 -86.81004188 0.7231916 -85.33827774 0.69416329 C-82.14900869 0.63445729 -78.95972687 0.58932084 -75.77020788 0.54511356 C-73.50879026 0.50753141 -71.24737868 0.46958378 -68.985973 0.43128991 C-45.99161258 0.062437 -22.99683004 0.00311927 0 0 Z " fill="#000000" transform="translate(770.8729605674744,711.8399572372437)"/>
<path d="M0 0 C1.14890774 -0.00260775 2.29781547 -0.00521549 3.48153859 -0.00790226 C5.38460705 -0.00455618 5.38460705 -0.00455618 7.32612133 -0.0011425 C8.68416851 -0.00229433 10.04221537 -0.00388227 11.40026158 -0.00586975 C15.14482871 -0.01006059 18.88937048 -0.0079728 22.63393772 -0.00488353 C26.67503622 -0.00262617 30.71613027 -0.00611242 34.7572279 -0.00886345 C42.71129282 -0.01333035 50.66534835 -0.01233663 58.61941365 -0.00945081 C65.15008037 -0.00718219 71.68074448 -0.00689062 78.21141148 -0.00797462 C79.61259942 -0.00820447 79.61259942 -0.00820447 81.0420942 -0.00843897 C82.94192631 -0.00875881 84.84175841 -0.00908302 86.74159052 -0.00941156 C104.63677612 -0.01227358 122.53195663 -0.00897742 140.42714139 -0.00361119 C155.50611621 0.00077369 170.58508309 0.00008705 185.66405773 -0.00452995 C236.5939311 -0.0195207 287.52356595 0.00377459 338.45333481 0.1149292 C341.79079697 0.12220221 345.12825952 0.12915324 348.46572304 0.13577652 C366.22411376 0.17107612 383.98229798 0.21755995 401.7404446 0.32019961 C408.12184169 0.35701062 414.50311327 0.38863535 420.88460255 0.40366936 C426.64418993 0.41776316 432.40334618 0.45048352 438.16274381 0.49900961 C440.22131782 0.51333071 442.27995039 0.5210817 444.33857417 0.52154779 C447.11054359 0.52330883 449.88124032 0.54942675 452.65299511 0.58192635 C453.44265378 0.57669956 454.23231245 0.57147278 455.04590017 0.5660876 C461.16765542 0.6795624 466.41795315 2.34682076 471.04132527 6.50213444 C475.72580787 11.72708895 476.94297213 17.07594062 476.760005 23.89146614 C476.06238642 30.12643219 472.79555921 34.74062288 468.510005 39.12584114 C463.12522068 42.65047246 458.34268813 42.54473764 452.12859631 42.49333382 C451.08136754 42.4966046 450.03413878 42.49987539 448.95517582 42.50324529 C445.43652164 42.51054286 441.91828235 42.49635229 438.39965343 42.48228645 C435.86659616 42.48304882 433.33353899 42.48511682 430.8004837 42.48838711 C424.59059589 42.49294464 418.3808592 42.48351035 412.17099326 42.46802133 C404.81640043 42.45040816 397.46183311 42.44986126 390.10722277 42.44988886 C375.0882036 42.44930208 360.06925538 42.42848612 345.05026418 42.40119582 C333.58214535 42.38049515 322.11403214 42.36571703 310.64589977 42.35499763 C307.3730901 42.35188762 304.10028044 42.34876302 300.82747078 42.34563541 C300.01723051 42.34486319 299.20699023 42.34409097 298.37219722 42.34329535 C262.13104775 42.30839552 225.89000399 42.2394431 189.64893776 42.15570503 C179.94269716 42.13331625 170.23645472 42.11269183 160.53020763 42.0933094 C133.23963853 42.03823411 105.94927753 41.96348131 78.6588968 41.84721553 C72.08832146 41.81970813 65.51774549 41.79883619 58.94713879 41.78050423 C51.098238 41.7582831 43.24947445 41.72531355 35.40068585 41.67754084 C31.50747486 41.65397832 27.61438873 41.63462614 23.72110844 41.62815857 C19.59153273 41.621071 15.4624549 41.59095385 11.33300304 41.55821419 C10.14958199 41.55965054 8.96616093 41.56108688 7.74687862 41.56256676 C-1.44616138 41.45739913 -9.22839449 40.21158433 -16.04858875 33.70787239 C-20.64498496 28.66304729 -21.08845258 23.70541797 -20.90015125 17.09849739 C-20.15295856 11.68312941 -17.7733611 8.12441103 -13.70483875 4.56334114 C-9.07208205 1.10106861 -5.67252774 0.00092551 0 0 Z " fill="#000000" transform="translate(677.4899950027466,606.8741588592529)"/>
<path d="M0 0 C0.82391676 -0.00187285 1.64783352 -0.00374571 2.49671745 -0.00567532 C5.27947776 -0.00935601 8.06198782 0.00153515 10.84472656 0.01245117 C12.87999455 0.01327094 14.91526298 0.01329671 16.95053101 0.01260376 C22.59785539 0.01367309 28.24507677 0.02823512 33.89237213 0.04548264 C38.72733178 0.05885493 43.56229166 0.0651134 48.39726448 0.07172871 C94.36201942 0.13806132 140.32671032 0.39348078 186.29072571 0.64953232 C189.97678966 0.67004813 193.66285517 0.69023133 197.34892273 0.71008682 C218.03091303 0.82154838 238.71266353 0.94688905 259.39421082 1.12375164 C261.00226843 1.13749847 262.61032609 1.15124062 264.21838379 1.16497803 C265.00783701 1.17173658 265.79729023 1.17849513 266.61066628 1.18545848 C272.13440992 1.23185612 277.6581667 1.26862555 283.18200684 1.30133057 C289.8528807 1.34105106 296.52346314 1.39466645 303.19407022 1.46663743 C306.57186968 1.50277449 309.94918647 1.53075125 313.32718277 1.54589653 C316.97524679 1.56344049 320.62224863 1.60523835 324.27001953 1.65332031 C325.85193148 1.65248664 325.85193148 1.65248664 327.46580124 1.65163612 C334.36879791 1.77790261 340.00961688 2.87237717 345.25648308 7.61903477 C349.9602232 12.82660576 351.16818376 18.19804563 350.98535156 25.00854492 C350.28773298 31.24351097 347.02090578 35.85770166 342.73535156 40.24291992 C336.96027165 44.24115459 330.91774854 43.65137743 324.17089844 43.59936523 C322.89314293 43.60138412 321.61538742 43.603403 320.29891205 43.60548306 C316.76354653 43.61057998 313.22846891 43.59687682 309.69314957 43.57991958 C305.89008531 43.56484581 302.08702435 43.56685542 298.28393555 43.56660461 C290.85649668 43.56327147 283.42918858 43.54341558 276.00179672 43.51777357 C269.9594532 43.49728765 263.91712652 43.48345571 257.87475586 43.47409058 C257.01435495 43.47274441 256.15395404 43.47139825 255.26748037 43.47001129 C254.40438206 43.46866257 253.54128375 43.46731385 252.65203094 43.46592426 C204.26077099 43.39026214 155.86966756 43.14823568 107.479496 42.82056236 C105.25178379 42.8055308 103.02407021 42.79071851 100.7963562 42.7759552 C84.4900407 42.66746672 68.18424626 42.5394185 51.87854767 42.3575573 C44.45081879 42.27589554 37.0234551 42.21937278 29.59537506 42.1822176 C24.93133801 42.15412166 20.26767035 42.10573019 15.60386658 42.05186272 C13.45587104 42.03113616 11.30777621 42.01869083 9.15968323 42.01538277 C-12.29559119 41.97345637 -12.29559119 41.97345637 -19.26464844 36.24291992 C-24.53573639 30.59279829 -25.58583683 25.44495061 -25.46777344 17.95776367 C-24.97005642 11.30558424 -21.23252628 7.95696735 -16.49511719 3.75854492 C-11.33826022 0.25441094 -6.06446575 -0.0449202 0 0 Z " fill="#000000" transform="translate(692.2646484375,838.757080078125)"/>
<path d="M0 0 C1.17980161 -0.00569124 2.35960322 -0.01138248 3.57515639 -0.01724619 C4.87250647 -0.01842606 6.16985655 -0.01960594 7.50652027 -0.02082157 C8.89774223 -0.02555327 10.28896281 -0.03070428 11.6801818 -0.03623921 C15.5074977 -0.05014163 19.3348041 -0.05772783 23.16213882 -0.0642122 C26.44385917 -0.07058502 29.72556391 -0.08065481 33.00727453 -0.09077286 C43.81837325 -0.12408805 54.62948145 -0.14561529 65.44061467 -0.16397271 C68.25551542 -0.16876819 71.07041579 -0.17375144 73.88531613 -0.17877793 C91.36542839 -0.20974658 108.84554396 -0.23643165 126.32567596 -0.25319672 C130.37406069 -0.25714621 134.42244536 -0.2611492 138.47082996 -0.2652216 C139.98013745 -0.26673414 139.98013745 -0.26673414 141.519936 -0.26827724 C157.82225661 -0.28528661 174.12442549 -0.32639969 190.426672 -0.37724458 C207.16345531 -0.4290155 223.90016056 -0.45813815 240.63702327 -0.4653936 C250.03437342 -0.47005619 259.43147497 -0.48481114 268.82874584 -0.5251379 C276.83130763 -0.55943795 284.83357597 -0.57337729 292.83620705 -0.56071376 C296.91850002 -0.55488701 301.00017234 -0.55875125 305.08237171 -0.5888834 C308.82273347 -0.61626678 312.5620343 -0.6157329 316.30241988 -0.59337295 C318.28989368 -0.5886327 320.277371 -0.6133923 322.26468104 -0.63934225 C330.09429735 -0.55688076 335.46873526 0.63527533 341.25427723 6.1398077 C345.60947535 11.76859167 346.72039713 17.14800916 346.25427723 24.1398077 C344.8695048 30.59360948 341.50248983 35.17687165 336.25427723 39.1398077 C332.50112347 40.92948305 329.52734936 41.39135571 325.38550663 41.39707661 C323.61281764 41.40674995 323.61281764 41.40674995 321.80431676 41.4166187 C320.50987952 41.4135215 319.21544228 41.4104243 317.88177967 41.40723324 C316.4896936 41.41097017 315.09760962 41.41557186 313.70552897 41.42096388 C309.88044523 41.43320421 306.05544888 41.4329322 302.23035002 41.43057513 C298.10478745 41.43016722 293.97925299 41.4412037 289.8537035 41.45069027 C281.77071797 41.46730729 273.68776161 41.47280015 265.60476044 41.47391503 C259.0341092 41.47486524 252.46346759 41.47897421 245.8928194 41.48531628 C227.26386163 41.5029312 208.6349269 41.51215484 190.00596073 41.51065533 C188.49934127 41.51053546 188.49934127 41.51053546 186.96228504 41.51041317 C185.4538258 41.51029053 185.4538258 41.51029053 183.91489264 41.51016541 C167.61913768 41.50935261 151.32347517 41.52848813 135.02774695 41.5566899 C118.29544498 41.58541869 101.56318811 41.59923018 84.83086085 41.59750235 C75.43694865 41.59683841 66.04313335 41.60233238 56.64924335 41.62385845 C48.65039729 41.64207025 40.65169203 41.64641766 32.65283421 41.63283961 C28.57269902 41.62630971 24.49283398 41.62619331 20.41272449 41.6435461 C16.67443342 41.65928139 12.93662659 41.65640894 9.1983473 41.63897784 C7.21195417 41.63445972 5.22554599 41.6495618 3.23921132 41.66545713 C-4.37541143 41.60671296 -11.47048815 41.06004117 -17.32407069 35.6925205 C-22.44747809 29.83947406 -23.3158321 25.11212801 -23.18712902 17.4757452 C-22.40530191 11.56706952 -19.62261257 7.36089036 -14.92931652 3.73746395 C-9.95398926 0.71788088 -5.71227298 0.0160822 0 0 Z " fill="#000000" transform="translate(688.7457227706909,957.8601922988892)"/>
<path d="M0 0 C1.15948528 -0.00419795 2.31897057 -0.0083959 3.51359177 -0.01272106 C4.77766483 -0.00709809 6.0417379 -0.00147512 7.34411621 0.00431824 C8.70755731 0.00327191 10.07099797 0.00136064 11.4344368 -0.00133991 C15.17338463 -0.00613943 18.91221513 0.00165862 22.6511488 0.01165771 C26.68049728 0.02034577 30.70984125 0.01768945 34.73919678 0.01664734 C42.61924634 0.01662299 50.49924015 0.02801599 58.37927222 0.04390252 C64.77726061 0.05673644 71.17524482 0.06603451 77.57324219 0.07301331 C101.49472009 0.09982896 125.41606535 0.15359653 149.33745694 0.22248107 C156.13337456 0.24196044 162.92929515 0.25966988 169.72521973 0.27653503 C192.8216277 0.33447028 215.91780413 0.41590013 239.01402664 0.52514654 C245.12087025 0.5533983 251.227714 0.57453741 257.33459473 0.59284973 C264.77047616 0.61536763 272.20621739 0.64859055 279.64198565 0.69563878 C283.42854167 0.71937305 287.21496608 0.73851499 291.00159454 0.74490356 C295.103279 0.75203358 299.20446906 0.78228787 303.30603027 0.81486511 C304.49739845 0.81342908 305.68876663 0.81199305 306.91623688 0.8105135 C314.22445433 0.89358986 320.2893666 1.43422293 326.35778809 5.89567566 C327.16603027 6.7503241 327.16603027 6.7503241 327.99060059 7.62223816 C328.54489746 8.18684753 329.09919434 8.75145691 329.67028809 9.33317566 C333.97555811 15.03474947 333.82747816 21.39541652 333.11560059 28.24723816 C331.40215654 34.18587946 328.15576004 37.81992973 323.11560059 41.24723816 C318.76244316 42.99874843 315.1328975 43.49394473 310.45643616 43.48123169 C309.48910965 43.48270664 309.48910965 43.48270664 308.50224119 43.48421139 C306.35313165 43.48502214 304.20436106 43.47149709 302.05529785 43.45793152 C300.50817156 43.45546585 298.96104368 43.45386428 297.41391563 43.45305824 C293.20098622 43.44823607 288.98819313 43.43074415 284.77531123 43.41088986 C280.28374192 43.39176554 275.79215039 43.38392668 271.30055237 43.37442017 C260.84693402 43.34973156 250.39343336 43.30597703 239.93989277 43.25950146 C235.38492203 43.23972342 230.82994265 43.22225562 226.27496338 43.20457458 C203.91900045 43.11640819 181.56330891 42.99451478 159.20759165 42.85839975 C152.85052373 42.81992868 146.4934443 42.78421304 140.13635254 42.74992371 C118.03404575 42.63029669 95.93205378 42.48868533 73.83015072 42.30870807 C68.63772584 42.26662242 63.44528824 42.22780727 58.25282174 42.19123429 C49.8040104 42.13154139 41.3554103 42.06156283 32.9068616 41.97170752 C29.00361084 41.93031873 25.10046172 41.89335354 21.19706535 41.8688221 C17.60731999 41.84601242 14.01798433 41.80936805 10.42848277 41.76190114 C8.51207324 41.73998277 6.59551682 41.73233333 4.67899513 41.72522545 C-4.45153417 41.58235209 -11.53312096 40.29554371 -18.40783691 33.90739441 C-22.41165815 29.40574354 -23.46666636 24.35652845 -23.22814941 18.51286316 C-22.23718672 11.98151812 -18.78728475 7.65300345 -13.86096191 3.47380066 C-9.47105961 0.74963203 -5.09625066 -0.00278003 0 0 Z " fill="#000000" transform="translate(698.8843994140625,1098.7527618408203)"/>
<path d="M0 0 C0.89786354 -0.00453111 1.79572708 -0.00906223 2.72079861 -0.01373065 C5.72384062 -0.02637225 8.72670121 -0.02475443 11.72976685 -0.02310181 C13.88513421 -0.02908716 16.04049942 -0.03589272 18.19586182 -0.04345703 C24.0471082 -0.06112245 29.89829608 -0.06581262 35.74956656 -0.0670886 C39.40573453 -0.06851033 43.06188763 -0.07278031 46.71805191 -0.07808304 C59.47457066 -0.09658433 72.23104762 -0.10475343 84.98757935 -0.10317993 C96.8766404 -0.10197815 108.76552003 -0.12308753 120.65453517 -0.15466726 C130.86447182 -0.18082017 141.07434916 -0.19154765 151.28431904 -0.19026911 C157.38117865 -0.18975924 163.47787698 -0.1954568 169.57470322 -0.21662521 C175.30884904 -0.23599109 181.04267944 -0.23614313 186.7768364 -0.22159195 C188.87948568 -0.2195008 190.98215463 -0.22422292 193.0847702 -0.23631287 C195.95906461 -0.25176759 198.83227168 -0.24245547 201.70654297 -0.22705078 C202.94946273 -0.24248147 202.94946273 -0.24248147 204.21749198 -0.25822389 C210.81846753 -0.18024417 216.0512432 1.68300324 221.03884888 6.08383179 C221.49388794 6.66004272 221.948927 7.23625366 222.41775513 7.82992554 C222.89084106 8.4087146 223.363927 8.98750366 223.85134888 9.58383179 C227.27686667 14.69247597 226.3574676 21.39886994 225.98025513 27.26742554 C224.25080643 33.1043149 219.79021115 36.74723594 214.98025513 40.26742554 C211.08683867 41.56523102 207.39297853 41.41548678 203.33473206 41.41459656 C201.99389835 41.42011159 201.99389835 41.42011159 200.6259771 41.42573804 C197.6183316 41.43678722 194.61072063 41.44062085 191.60305786 41.44442749 C189.45137929 41.4506913 187.29970181 41.45733803 185.14802551 41.46434021 C179.29235033 41.48175969 173.43668332 41.49230499 167.58098865 41.50054574 C163.92231336 41.50569487 160.26364061 41.51177071 156.60496712 41.51805687 C145.15737155 41.53711332 133.70978245 41.55134237 122.26217407 41.55966884 C109.04928002 41.56943785 95.83655365 41.59574686 82.62371868 41.63616973 C72.41127075 41.66634048 62.19887084 41.68113871 51.98637921 41.68444985 C45.88716483 41.6867996 39.78812949 41.69575034 33.68896294 41.72091103 C27.94747788 41.74421273 22.20628947 41.74841634 16.46476936 41.73814964 C14.36134479 41.73765466 12.25790551 41.74396405 10.15452576 41.75770569 C-12.85231067 41.89955933 -12.85231067 41.89955933 -19.92635441 35.55832386 C-24.09481158 31.20017941 -25.77645614 26.89494385 -26.33224487 20.89242554 C-25.65875744 13.0799713 -23.19580416 8.81573989 -17.25021362 3.71273804 C-11.73841427 0.14116928 -6.34219098 -0.02357899 0 0 Z " fill="#000000" transform="translate(696.0197448730469,1228.7325744628906)"/>
<path d="M0 0 C4.07448749 3.32214437 6.6388455 6.16401317 7.28125 11.52734375 C7.41471913 22.01801769 7.41471913 22.01801769 2.9453125 26.72265625 C-0.75458223 30.15182697 -3.6339224 31.02235374 -8.5546875 31.22265625 C-13.48838965 31.00843852 -16.41889255 30.26977327 -20.0546875 26.72265625 C-23.36515714 21.93856063 -24.96385738 17.58175102 -24.0546875 11.72265625 C-22.28577749 6.46483618 -20.25289632 1.88532453 -15.3046875 -0.96484375 C-10.02612299 -3.04247083 -4.88447909 -3.03654879 0 0 Z " fill="#000000" transform="translate(1446.0546875,1307.27734375)"/>
<path d="M0 0 C4.07448749 3.32214437 6.6388455 6.16401317 7.28125 11.52734375 C7.41471913 22.01801769 7.41471913 22.01801769 2.9453125 26.72265625 C-0.75458223 30.15182697 -3.6339224 31.02235374 -8.5546875 31.22265625 C-13.48838965 31.00843852 -16.41889255 30.26977327 -20.0546875 26.72265625 C-23.36515714 21.93856063 -24.96385738 17.58175102 -24.0546875 11.72265625 C-22.28577749 6.46483618 -20.25289632 1.88532453 -15.3046875 -0.96484375 C-10.02612299 -3.04247083 -4.88447909 -3.03654879 0 0 Z " fill="#000000" transform="translate(1341.0546875,1307.27734375)"/>
<path d="M0 0 C4.07448749 3.32214437 6.6388455 6.16401317 7.28125 11.52734375 C7.41471913 22.01801769 7.41471913 22.01801769 2.9453125 26.72265625 C-0.75458223 30.15182697 -3.6339224 31.02235374 -8.5546875 31.22265625 C-13.48838965 31.00843852 -16.41889255 30.26977327 -20.0546875 26.72265625 C-23.36515714 21.93856063 -24.96385738 17.58175102 -24.0546875 11.72265625 C-22.28577749 6.46483618 -20.25289632 1.88532453 -15.3046875 -0.96484375 C-10.02612299 -3.04247083 -4.88447909 -3.03654879 0 0 Z " fill="#000000" transform="translate(1232.0546875,1307.27734375)"/>
</svg>
